<svg xmlns="http://www.w3.org/2000/svg" xmlns:xlink="http://www.w3.org/1999/xlink" viewBox="0 0 1920 1399.3"><linearGradient id="A" gradientUnits="userSpaceOnUse" x1="1.689" y1="1401.499" x2="1.689" y2="1400.499" gradientTransform="matrix(2947.2603 -2653.7251 -1651.3927 -1834.0573 2309544.25 2573908.5)"><stop offset="0" stop-color="#a496de"/><stop offset="1" stop-color="#8567ff"/></linearGradient><path d="M-424.3-488.6c-73.9 140.9-45.7 279.1-16.9 449.1 60 354.8-202.3 526.9-206.8 926-1.8 164.5 48.1 299.4 131.9 393l1.8 2c89.6 98.8 217.2 151 361.5 142.4 323.4-19.3 500-256.1 798.3-498.9 262.7-213.9 507.4-37.5 873.5-52.1 252.6-10.1 427.8-183.2 524.6-415.8 126.6-304 91-535.8 57.9-815-36.6-308.4 86.1-481.1 172.4-659.5 266.8-551.4-308-919.8-657.9-644.4-112.2 88.3-179.3 190.2-234.5 281.4-104.4 172.4-166.4 306.8-411.9 239.6-112.1-30.7-200.9-74.4-300.8-71.8-147.3 3.8-215 115.2-281.5 225.4C325-883.9 263.7-781.5 139-769.4c-128.3 12.5-312 9.6-454.8 138.1-40.2 36.2-77 82.6-108.5 142.7" fill="url(#A)"/><defs><path id="B" d="M-307.5-1592.6h2666v2855.8h-2666z"/></defs><clipPath id="C"><use xlink:href="#B"/></clipPath><g clip-path="url(#C)"><linearGradient id="D" gradientUnits="userSpaceOnUse" x1="1025.541" y1="-1592.539" x2="1025.541" y2="1263.211"><stop offset="0" stop-color="#a496de"/><stop offset="1" stop-color="#8567ff"/></linearGradient><path d="M2306.6-1087.6c-11.7 24.2-24.4 48.7-37.7 74.6-83.2 161.3-186.8 362-149.7 674.5l4.6 38.2c30.9 258.1 53.3 444.6-51.1 695.4C2014.4 534.8 1901 703 1691 711.4c-12.6.5-25.1.8-37.5.7-97.1 0-187.3-14.5-274.9-28.6-85.7-13.8-167.5-26.9-251.8-26.9-19.8 0-39.8.7-60 2.3-128.6 10.3-241.4 56.3-345.1 140.7-70.7 57.5-133 113.2-193.3 167-185 165-318.6 284.3-512.3 295.9-7.2.4-14.3.6-21.3.6-84.3 0-156.7-30.8-210.3-89.9l-1.5-1.7c-60.5-67.7-91.8-165.6-90.5-283 1.7-155.1 51.3-270.5 103.8-392.6 33-76.9 67.2-156.4 89-245.5 26-106.3 29.8-209.9 11.8-316.7l-3.9-23c-26.6-156.3-38.5-241.7 4.6-323.8.1-.2.2-.4.3-.7 20.9-39.7 44.8-71.4 73-96.8 83.6-75.2 197.3-84.1 307.2-92.7l54.9-4.6c94.2-9.2 177.5-50.4 247.6-122.7 51.5-53.1 89.5-116 123-171.5l.8-1.2c68.1-112.8 95.6-145.8 147-147.2 1.4 0 2.8-.1 4.2-.1 41.6 0 89 15.5 148.5 35 30.2 9.9 64.4 21.1 101.1 31.2 57.2 15.7 109.5 23.4 158.5 23.4 15.7 0 31.5-.8 47.2-2.5 65.3-7 125.2-29.3 178-66.3 86.1-60.3 137.3-145.9 191.6-236.5l18.1-30.1c48.9-80.8 104.4-165.8 196.1-238 52.7-41.5 111-58.4 167-58.4 71.3 0 139.1 27.4 187.8 66.5 121.2 97.8 142.5 261.8 56.9 438.7" fill="url(#D)"/></g><g transform="translate(62 1327.633)" opacity=".35"><g transform="translate(-62 -1327.633)"><defs><path id="E" d="M-80.9-1326.9h2178v2333h-2178z"/></defs><clipPath id="F"><use xlink:href="#E"/></clipPath><g clip-path="url(#F)"><path d="M2054.8-914.3c-9.6 19.8-19.9 39.8-30.8 61-68 131.7-152.6 295.7-122.3 551l3.7 31.2c25.3 210.9 43.6 363.2-41.8 568.1-47.5 114.1-140.2 251.5-311.7 258.3-10.3.4-20.5.6-30.6.6-79.3 0-153-11.8-224.6-23.3-70-11.2-136.9-22-205.7-22-16.2 0-32.5.6-49 1.9-105 8.4-197.2 46-281.9 114.9-57.7 47-108.7 92.5-158 136.4C451 898.7 341.8 996.1 183.5 1005.6c-5.9.4-11.7.5-17.4.5-68.9 0-128-25.2-171.8-73.4l-1.2-1.4C-56.3 876-81.9 796-80.8 700.1c1.4-126.7 41.9-221 84.8-320.7 27-62.8 54.9-127.8 72.7-200.6C97.9 92 101 7.3 86.3-79.9l-3.2-18.8c-21.8-127.7-31.5-197.4 3.7-264.6.1-.2.2-.4.3-.5 17.1-32.5 36.6-58.3 59.7-79.1 68.3-61.5 161.2-68.7 251-75.7l44.8-3.8c77-7.5 145-41.2 202.3-100.2 42.1-43.3 73.1-94.7 100.4-140.1l.6-1C801.5-855.9 824-882.8 866-883.9h3.5c34 0 72.7 12.7 121.3 28.6 24.7 8.1 52.6 17.2 82.6 25.5 46.7 12.8 89.5 19.1 129.5 19.1 12.9 0 25.7-.7 38.5-2 53.4-5.7 102.3-24 145.4-54.1 70.3-49.3 112.2-119.2 156.5-193.2l14.8-24.6c40-66 85.3-135.4 160.2-194.4 43.1-33.9 90.6-47.7 136.5-47.7 58.2 0 113.6 22.4 153.4 54.3 99.1 79.6 116.5 213.5 46.6 358.1" fill="none" stroke="#fff"/></g></g><g transform="translate(-35.101 -1298.82)"><defs><path id="G" d="M-80.9-1326.9h2124.2V948.5H-80.9z"/></defs><clipPath id="H"><use xlink:href="#G"/></clipPath><g clip-path="url(#H)"><path d="M2002-924.5c-9.3 19.3-19.4 38.8-30.1 59.5-66.3 128.5-148.9 288.4-119.3 537.4l3.6 30.5c24.7 205.7 42.5 354.2-40.7 554.1-46.3 111.3-136.7 245.3-304 251.9-10 .4-20 .6-29.9.6-77.3 0-149.3-11.6-219.1-22.8-68.3-11-133.5-21.4-200.6-21.4-15.8 0-31.7.6-47.8 1.9-102.4 8.2-192.4 44.9-274.9 112.1-56.3 45.8-106 90.2-154.1 133.1C437.8 843.7 331.3 938.8 177 948c-5.7.3-11.4.5-17 .5-67.2 0-124.9-24.6-167.6-71.6l-1.2-1.3C-57 821.7-81.9 743.7-80.9 650.1-79.5 526.5-40 434.6 1.8 337.3c26.4-61.3 53.6-124.7 71-195.7 20.7-84.7 23.8-167.3 9.4-252.4l-3.1-18.3c-21.2-124.5-30.7-192.5 3.6-258 .1-.2.2-.4.3-.5 16.7-31.7 35.7-56.9 58.2-77.2 66.6-60 157.2-67 244.8-73.8l43.7-3.7c75.1-7.3 141.4-40.2 197.3-97.7 41-42.3 71.3-92.4 98-136.6l.6-1c54.2-89.9 76.2-116.2 117.1-117.3h3.4c33.1 0 70.9 12.4 118.3 27.9 24 7.9 51.3 16.8 80.6 24.8 45.6 12.5 87.3 18.7 126.3 18.7 12.5 0 25.1-.6 37.6-2 52.1-5.6 99.8-23.4 141.8-52.8 68.6-48 109.4-116.2 152.6-188.5l14.4-24c39-64.4 83.2-132.1 156.2-189.6 42-33.1 88.4-46.6 133.1-46.6 56.8 0 110.8 21.8 149.6 53 96.6 77.9 113.6 208.5 45.4 349.5" fill="none" stroke="#fff"/></g></g><g transform="translate(0 -1261.22)"><defs><path id="I" d="M-80.9-1326.9h2054V873.3h-2054z"/></defs><clipPath id="J"><use xlink:href="#I"/></clipPath><g clip-path="url(#J)"><path d="M1933.2-937.8c-9 18.7-18.8 37.5-29.1 57.5-64.1 124.2-143.9 278.9-115.4 519.7l3.5 29.5c23.8 198.9 41.1 342.5-39.4 535.8-44.8 107.6-132.2 237.2-293.9 243.6a700.16 700.16 0 0 1-28.9.6c-74.8 0-144.3-11.2-211.8-22-66-10.6-129.1-20.7-194-20.7-15.3 0-30.7.6-46.2 1.8-99 8-186 43.4-265.8 108.4-54.4 44.3-102.5 87.2-149 128.7C420.7 772 317.7 863.9 168.5 872.8c-5.5.3-11 .5-16.4.5-65 0-120.7-23.8-162-69.2l-1.2-1.3c-46.6-52.2-70.7-127.6-69.7-218 1.3-119.5 39.5-208.4 80-302.5C24.6 223 50.9 161.7 67.7 93.1c20-81.9 23-161.7 9.1-244l-3-17.7C53.2-289 44.1-354.8 77.3-418.1c.1-.2.2-.3.3-.5 16.1-30.6 34.5-55 56.3-74.6 64.4-58 152-64.8 236.7-71.4l42.3-3.6c72.6-7.1 136.8-38.9 190.8-94.5 39.7-40.9 68.9-89.3 94.7-132.1l.6-1c52.4-86.9 73.7-112.4 113.3-113.4h3.3c32 0 68.6 12 114.4 27 23.3 7.6 49.6 16.3 77.9 24 44.1 12.1 84.4 18 122.1 18 12.1 0 24.3-.6 36.3-1.9 50.3-5.4 96.5-22.6 137.1-51.1 66.3-46.5 105.8-112.4 147.6-182.2l13.9-23.2c37.7-62.3 80.4-127.7 151.1-183.3 40.6-32 85.5-45 128.7-45 54.9 0 107.2 21.1 144.7 51.2 93.3 75.3 109.7 201.6 43.8 337.9" fill="none" stroke="#fff"/></g></g><g transform="translate(44.078 -1214.005)"><defs><path id="K" d="M-80.9-1326.9h1965.8V778.9H-80.9z"/></defs><clipPath id="L"><use xlink:href="#K"/></clipPath><g clip-path="url(#L)"><path d="M1846.7-954.5c-8.6 17.9-18 35.9-27.8 55-61.4 118.9-137.8 266.9-110.4 497.4l3.4 28.2c22.8 190.3 39.3 327.8-37.7 512.8-42.9 103-126.5 227-281.3 233.2-9.3.4-18.5.6-27.6.5-71.6 0-138.1-10.7-202.7-21.1-63.2-10.2-123.5-19.8-185.7-19.8-14.6 0-29.4.5-44.3 1.7-94.8 7.6-178 41.5-254.4 103.8-52.2 42.3-98.2 83.4-142.6 123-136.4 121.7-235 209.6-377.8 218.2-5.3.3-10.5.5-15.7.5-62.2 0-115.6-22.7-155.1-66.3l-1.1-1.2c-44.6-49.9-67.7-122.1-66.7-208.7C-79.5 388.3-43 303.2-4.3 213.2c24.4-56.7 49.6-115.3 65.6-181 19.2-78.4 22-154.8 8.7-233.5l-2.9-17c-19.6-115.2-28.4-178.2 3.4-238.8.1-.2.2-.3.3-.5 15.4-29.3 33-52.7 53.9-71.4 61.6-55.5 145.5-62 226.5-68.3l40.5-3.4c69.5-6.8 130.9-37.2 182.6-90.4 38-39.1 66-85.5 90.7-126.4l.6-.9c50.2-83.2 70.5-107.5 108.4-108.5h3.1c30.7 0 65.6 11.5 109.5 25.8 22.3 7.3 47.5 15.6 74.6 23 42.2 11.5 80.8 17.3 116.9 17.3 11.6 0 23.2-.6 34.8-1.8 48.2-5.2 92.3-21.6 131.2-48.9 63.5-44.5 101.3-107.6 141.3-174.4l13.3-22.2c36.1-59.6 77-122.2 144.6-175.5 38.9-30.6 81.8-43.1 123.2-43.1 52.6 0 102.6 20.2 138.4 49 89.2 71.8 105 192.7 41.8 323.2" fill="none" stroke="#fff"/></g></g></g></svg>