<svg xmlns="http://www.w3.org/2000/svg" width="22.998" height="22.998"><path d="M11.499 0C5.148 0-.001 5.149-.001 11.5S5.148 23 11.499 23s11.5-5.149 11.5-11.5S17.85 0 11.499 0zm0 5.1a1.95 1.95 0 0 1 1.946 1.948 1.95 1.95 0 0 1-1.947 1.946 1.95 1.95 0 0 1-1.947-1.947c0-.517.205-1.012.571-1.377s.861-.57 1.377-.57zm2.6 11.777c.001.149-.058.293-.164.398s-.249.164-.398.162h-4.08c-.147 0-.289-.059-.393-.163s-.163-.246-.163-.393v-1.117c0-.147.059-.289.163-.393s.246-.163.393-.163h.556v-2.971h-.556c-.147 0-.289-.059-.393-.163s-.163-.246-.163-.393v-1.11c0-.147.059-.289.163-.393s.246-.163.393-.163h2.967c.307 0 .556.249.556.556v4.637h.557c.307 0 .556.249.556.556z" fill="#000"/></svg>