<svg xmlns="http://www.w3.org/2000/svg" width="19.531" height="17.578"><path d="M7.813 12.7v-.977H.986l-.01 3.906c-.001.518.205 1.015.572 1.381s.864.57 1.382.568H16.6c.519.002 1.016-.203 1.383-.57s.572-.865.57-1.383v-3.906h-6.834v.981zm9.766-8.789h-3.917V1.953L11.709 0H7.8L5.85 1.953v1.953h-3.9A1.96 1.96 0 0 0 0 5.859v2.93c-.002.519.203 1.016.57 1.383s.865.572 1.383.57h5.859V8.789h3.906v1.953h5.859a1.96 1.96 0 0 0 1.953-1.953v-2.93a1.96 1.96 0 0 0-1.952-1.953zm-5.859 0H7.813V1.953h3.906z" fill="#000"/></svg>