<svg xmlns="http://www.w3.org/2000/svg" width="23.467" height="17.6"><path d="M20.533 0h-17.6C1.313 0 0 1.313 0 2.933v11.734c0 1.62 1.313 2.933 2.933 2.933h17.6c1.62 0 2.933-1.313 2.933-2.933V2.933c0-1.62-1.313-2.933-2.933-2.933zm-13.2 13.933H3.667c-.194 0-.381-.077-.518-.215s-.215-.324-.215-.518v-.733c0-.194.077-.381.215-.518s.324-.215.518-.215h3.666zM13.2 13.2c0 .194-.077.381-.215.518s-.324.215-.518.215H8.8v-2.2h3.667c.194 0 .381.077.518.215s.215.324.215.518zm7.333-5.867c0 .81-.656 1.466-1.466 1.467H4.4c-.389 0-.762-.155-1.037-.43s-.43-.648-.43-1.037V4.4c0-.389.155-.762.43-1.037s.648-.43 1.037-.43h14.667c.81.001 1.466.657 1.466 1.467z" fill="#000"/></svg>