<svg xmlns="http://www.w3.org/2000/svg" width="22.998" height="22.998"><path d="M11.499 0h0C5.617-.001.683 4.438.066 10.288a11.08 11.08 0 0 0 0 2.421c.617 5.85 5.551 10.29 11.433 10.289h0c6.351 0 11.5-5.149 11.5-11.5s-5.149-11.5-11.5-11.5zm7.508 18.025c-1.255-.475-3.289-1.172-4.555-1.548-.133-.039-.149-.05-.149-.592.028-.451.152-.89.365-1.288.252-.555.423-1.143.509-1.747.401-.531.658-1.156.748-1.815.157-.498.149-1.033-.022-1.526a.98.98 0 0 1-.033-.094 9.94 9.94 0 0 1 .171-2.145 3.95 3.95 0 0 0-.824-2.836c-.795-.97-1.98-1.538-3.234-1.548h-.967A4.22 4.22 0 0 0 7.81 4.434c-.634.802-.932 1.819-.829 2.836a9.94 9.94 0 0 1 .171 2.145c-.011.039-.022.066-.033.1-.174.493-.182 1.029-.022 1.526.093.66.352 1.286.752 1.819a6.69 6.69 0 0 0 .509 1.747 3.09 3.09 0 0 1 .21 1.3c0 .547-.022.553-.144.592-1.31.387-3.256 1.073-4.423 1.537C.488 13.992.807 7.894 4.722 4.238s10.021-3.557 13.815.223c3.696 3.697 3.901 9.623.47 13.567z" fill="#000"/></svg>