<?xml version="1.0" encoding="utf-8"?>
<!-- Generator: Adobe Illustrator 24.3.0, SVG Export Plug-In . SVG Version: 6.00 Build 0)  -->
<svg version="1.1" id="Calque_1" xmlns="http://www.w3.org/2000/svg" xmlns:xlink="http://www.w3.org/1999/xlink" x="0px" y="0px"
	 viewBox="0 0 510.3 486.3" style="enable-background:new 0 0 510.3 486.3;" xml:space="preserve">
<style type="text/css">
	.st0{fill:url(#Tracé_10961_1_);}
	.st1{opacity:0.15;fill:url(#Tracé_10962_1_);enable-background:new    ;}
	.st2{fill:#FFFFFF;}
	.st3{fill:#6964AA;}
	.st4{opacity:0.3;fill:#010202;enable-background:new    ;}
	.st5{fill:url(#Tracé_10968_1_);}
	.st6{opacity:0.15;fill:url(#Tracé_10969_1_);enable-background:new    ;}
	.st7{fill:#455A64;}
	.st8{fill:#37474F;}
	.st9{fill:#263239;}
	.st10{fill:url(#Tracé_10981_1_);}
	.st11{opacity:0.65;fill:#FFFFFF;enable-background:new    ;}
	.st12{fill:url(#Tracé_10988_1_);}
	.st13{opacity:0.15;fill:#010202;enable-background:new    ;}
	.st14{fill:#5D55A0;}
	.st15{fill:#FBFBFB;}
	.st16{fill:url(#Union_27_1_);}
	.st17{fill:#674D9A;}
	.st18{opacity:0.8;fill:#FFFFFF;enable-background:new    ;}
	.st19{opacity:0.2;fill:#674D9A;enable-background:new    ;}
	.st20{opacity:0.1;fill:#010202;enable-background:new    ;}
	.st21{opacity:0.1;}
	.st22{fill:#010202;}
	.st23{fill:#F4A6A7;}
	.st24{fill:#6873B6;}
	.st25{fill:#F28F8F;}
	.st26{fill:#B8B8B8;}
	.st27{opacity:0.7;fill:#FFFFFF;enable-background:new    ;}
	.st28{fill:#F0F0F0;}
	.st29{fill:#7166AB;}
</style>
<g id="Groupe_9059" transform="translate(9838.375 -7872)">
	<g id="Groupe_9001" transform="translate(-8950.71 8144)">
		
			<linearGradient id="Tracé_10961_1_" gradientUnits="userSpaceOnUse" x1="-1670.1182" y1="2033.5543" x2="-1670.1182" y2="2032.5543" gradientTransform="matrix(70.7364 0 0 -82.7775 117289.125 168335.7031)">
			<stop  offset="0" style="stop-color:#A395C8"/>
			<stop  offset="1" style="stop-color:#6964AA"/>
		</linearGradient>
		<path id="Tracé_10961" class="st0" d="M-813.6,82.8c0,0-0.3-24.1-10.4-43.8c-10-19.7-25.2-32.8-40.2-35.6s-28.7,10-13.4,21.3
			c15.3,11.2,43.2,23.9,52.9,61.1L-813.6,82.8z"/>
		
			<linearGradient id="Tracé_10962_1_" gradientUnits="userSpaceOnUse" x1="-1670.1182" y1="2033.5543" x2="-1670.1182" y2="2032.5543" gradientTransform="matrix(70.7364 0 0 -82.7775 117289.125 168335.7031)">
			<stop  offset="0" style="stop-color:#A395C8"/>
			<stop  offset="1" style="stop-color:#6964AA"/>
		</linearGradient>
		<path id="Tracé_10962" class="st1" d="M-813.6,82.8c0,0-0.3-24.1-10.4-43.8c-10-19.7-25.2-32.8-40.2-35.6s-28.7,10-13.4,21.3
			c15.3,11.2,43.2,23.9,52.9,61.1L-813.6,82.8z"/>
	</g>
	<path id="Tracé_10963" class="st2" d="M-9768.2,8220.2c0.1,0,0.1,0,0.2,0c0.4-0.1,0.7-0.6,0.6-1c0,0,0,0,0,0
		c-12.1-41.1-41-60.6-54.6-65.2c-0.4-0.1-0.9,0.1-1,0.5c-0.1,0.4,0.1,0.9,0.5,1l0,0c13.3,4.5,41.6,23.7,53.5,64.1
		C-9768.9,8220-9768.6,8220.2-9768.2,8220.2z"/>
	<path id="Tracé_10964" class="st3" d="M-9762.8,8249.6c-5.6,3.2-8.8,5.3-19.1,6.2c-7.3,0.5-14.6-0.5-21.6-2.9
		c-1.9-0.7-4.9-2.2-3.2-4c0.9-0.9,10.9-2.5,14.5-6.8c-4.2,1.1-9.8,2.4-14.1,2.5c-4.4,0.1-8.9-1-12.3-3.8c-3.3-2.8-5.1-6.9-6.8-10.9
		c-0.6-1.4-1.1-3-0.2-4.2c0.6-0.7,1.5-1.1,2.4-1.3l11.4-3.2c2.5-0.5,0.7-2.2-0.2-2.3c-1.4-0.2-2.8-0.3-4.1-0.2
		c-4.4,0.2-9.2,1.1-12.8-1.5c-2.1-1.6-3.5-4-3.9-6.6c-0.2-0.9-0.9-12.7-0.4-12.8c2.9-0.7,5.8-1.2,8.7-1.5c2.8-0.3,5.5-0.4,8.2-0.8
		c3.1-0.4,6.3-0.6,9.4-0.6c1.1-0.1,2.1,0.1,3.1,0.6c1.2,0.9,1.9,2.3,1.9,3.8c0,1.5,0.2,2.9,0.6,4.3c1.3-0.1,1.8-1.9,1.7-3.2
		s0-3,1.2-3.6c0.6-0.2,1.4-0.2,2,0c4.3,0.9,8.4,2.3,12.4,4.1c1.8,0.8,3.5,1.9,4.9,3.3c1.9,2.2,2.5,5.3,2.5,8.3
		c0,2.9-0.4,5.9-0.2,8.8c2.3-2.1,5.5-8.3,5.8-11.4c4.9,3.2,7.9,9.7,8.8,18.7c0.6,6.6,0.5,13.2-0.4,19.7
		C-9762.6,8248.4-9762.6,8249.5-9762.8,8249.6z"/>
	<path id="Tracé_10965" class="st4" d="M-9762.8,8249.6c-5.6,3.2-8.8,5.3-19.1,6.2c-7.3,0.5-14.6-0.5-21.6-2.9
		c-1.9-0.7-4.9-2.2-3.2-4c0.9-0.9,10.9-2.5,14.5-6.8c-4.2,1.1-9.8,2.4-14.1,2.5c-4.4,0.1-8.9-1-12.3-3.8c-3.3-2.8-5.1-6.9-6.8-10.9
		c-0.6-1.4-1.1-3-0.2-4.2c0.6-0.7,1.5-1.1,2.4-1.3l11.4-3.2c2.5-0.5,0.7-2.2-0.2-2.3c-1.4-0.2-2.8-0.3-4.1-0.2
		c-4.4,0.2-9.2,1.1-12.8-1.5c-2.1-1.6-3.5-4-3.9-6.6c-0.2-0.9-0.9-12.7-0.4-12.8c2.9-0.7,5.8-1.2,8.7-1.5c2.8-0.3,5.5-0.4,8.2-0.8
		c3.1-0.4,6.3-0.6,9.4-0.6c1.1-0.1,2.1,0.1,3.1,0.6c1.2,0.9,1.9,2.3,1.9,3.8c0,1.5,0.2,2.9,0.6,4.3c1.3-0.1,1.8-1.9,1.7-3.2
		s0-3,1.2-3.6c0.6-0.2,1.4-0.2,2,0c4.3,0.9,8.4,2.3,12.4,4.1c1.8,0.8,3.5,1.9,4.9,3.3c1.9,2.2,2.5,5.3,2.5,8.3
		c0,2.9-0.4,5.9-0.2,8.8c2.3-2.1,5.5-8.3,5.8-11.4c4.9,3.2,7.9,9.7,8.8,18.7c0.6,6.6,0.5,13.2-0.4,19.7
		C-9762.6,8248.4-9762.6,8249.5-9762.8,8249.6z"/>
	<g id="Groupe_9005" transform="translate(-8940.582 8198.128)">
		<g id="Groupe_9003" transform="translate(0 0)">
			<path id="Tracé_10966" class="st2" d="M-823.2,50.3c-0.3,0-0.5-0.1-0.6-0.4c-16-30.8-51.5-43.7-60.1-45.5
				c-0.4-0.1-0.6-0.4-0.5-0.8c0.1-0.4,0.4-0.6,0.8-0.5c8.7,1.8,44.7,15,61,46.2c0.2,0.3,0,0.7-0.3,0.9
				C-823,50.3-823.1,50.3-823.2,50.3L-823.2,50.3z"/>
		</g>
		<g id="Groupe_9004" transform="translate(13.985 19.5)">
			<path id="Tracé_10967" class="st2" d="M-883.7,13.1c-0.4,0-0.7-0.3-0.7-0.7c0-0.4,0.3-0.6,0.6-0.7c17.7-1.4,23.4-8.3,23.5-8.4
				c0.2-0.3,0.7-0.3,1-0.1c0.3,0.2,0.3,0.6,0.1,0.9C-859.5,4.5-865.3,11.6-883.7,13.1L-883.7,13.1z"/>
		</g>
	</g>
	<g id="Groupe_9006" transform="translate(-8498.111 8114.243)">
		
			<linearGradient id="Tracé_10968_1_" gradientUnits="userSpaceOnUse" x1="-2126.1172" y1="2063.0352" x2="-2126.1172" y2="2062.0352" gradientTransform="matrix(53.9785 0 0 -88.1163 113907.125 181790.1094)">
			<stop  offset="0" style="stop-color:#A395C8"/>
			<stop  offset="1" style="stop-color:#6964AA"/>
		</linearGradient>
		<path id="Tracé_10968" class="st5" d="M-837.7,30.7c-7.8,8.6-22.2,22.7-30.6,36.3c0,0,0,0.1-0.1,0.1c-3.3,5.3-5.6,10.6-6.2,15.4
			l-0.6,8.7l-3.6-2.1l-0.6-0.4l-1.5-0.8l0,0c-2.1-1.2-3.4-3.5-3.5-5.9c-0.6-21.2,5.1-39.3,10.6-50.2c7.5-14.9,21.6-30.1,33.8-28.6
			C-828.6,4.6-826.8,18.8-837.7,30.7z"/>
		
			<linearGradient id="Tracé_10969_1_" gradientUnits="userSpaceOnUse" x1="-2126.1172" y1="2063.0352" x2="-2126.1172" y2="2062.0352" gradientTransform="matrix(53.9785 0 0 -88.1163 113907.125 181790.1094)">
			<stop  offset="0" style="stop-color:#A395C8"/>
			<stop  offset="1" style="stop-color:#6964AA"/>
		</linearGradient>
		<path id="Tracé_10969" class="st6" d="M-837.7,30.7c-7.8,8.6-22.2,22.7-30.6,36.3c0,0,0,0.1-0.1,0.1c-3.3,5.3-5.6,10.6-6.2,15.4
			l-0.6,8.7l-3.6-2.1l-0.6-0.4l-1.5-0.8l0,0c-2.1-1.2-3.4-3.5-3.5-5.9c-0.6-21.2,5.1-39.3,10.6-50.2c7.5-14.9,21.6-30.1,33.8-28.6
			C-828.6,4.6-826.8,18.8-837.7,30.7z"/>
	</g>
	<path id="Tracé_10970" class="st2" d="M-9341.6,8125.7c-15,9.5-36.3,42.4-35.9,77.4l-1.5-0.8c-0.1-35.1,21.4-68.2,36.5-77.8
		c0.3-0.2,0.8-0.1,1,0.2C-9341.2,8125-9341.3,8125.5-9341.6,8125.7L-9341.6,8125.7z"/>
	<path id="Tracé_10971" class="st3" d="M-9327,8172.9c-2.6,7.1-17.5,13.2-28.5,23.4c-2.7,2.5-5.2,5.3-7.5,8.2
		c-2.1,2.7-5.9,3.4-8.9,1.7l0,0l-1.3-0.8l-0.1,0l-3.6-2.1c2.2-7.9,5.7-15.4,10.4-22.1c0,0,0-0.1,0.1-0.1
		c7.3-10.5,16.2-18.2,22.5-19.9C-9331.6,8158-9323.8,8164.4-9327,8172.9z"/>
	<path id="Tracé_10972" class="st4" d="M-9327,8172.9c-2.6,7.1-17.5,13.2-28.5,23.4c-2.7,2.5-5.2,5.3-7.5,8.2
		c-2.1,2.7-5.9,3.4-8.9,1.7l0,0l-1.3-0.8l-0.1,0l-3.6-2.1c2.2-7.9,5.7-15.4,10.4-22.1c0,0,0-0.1,0.1-0.1
		c7.3-10.5,16.2-18.2,22.5-19.9C-9331.6,8158-9323.8,8164.4-9327,8172.9z"/>
	<path id="Tracé_10973" class="st2" d="M-9337.4,8168.7c-9,2.5-26.4,13.5-34.5,37.6l-1.3-0.8c8.1-24.4,25.5-35.5,35.4-38.3
		c0.4-0.1,0.8,0.1,0.9,0.5S-9337,8168.6-9337.4,8168.7L-9337.4,8168.7L-9337.4,8168.7z"/>
	<path id="Tracé_10974" class="st7" d="M-9772.7,8263.5c0,3.9,2.9,8.8,6.5,10.9l142.6,82.3c4.1,2.1,9,2.1,13.1,0l251.1-145
		c3.6-2.1,6.5-7,6.6-10.9s-2.9-8.8-6.5-10.9l-142.6-82.3c-4.1-2.1-9-2.1-13.1,0l-251.1,145
		C-9769.8,8254.7-9772.7,8259.6-9772.7,8263.5z"/>
	<path id="Tracé_10975" class="st8" d="M-9352.8,8200.9c0,3.9-2.9,8.8-6.6,10.9l-251.1,145c-2,1.1-4.3,1.6-6.5,1.6v-14.2
		c2.3,0,4.5-0.5,6.5-1.6l251.1-145c3.2-1.8,3.6-4.7,1.2-6.7C-9355.2,8193.2-9352.8,8197.4-9352.8,8200.9z"/>
	<path id="Tracé_10976" class="st9" d="M-9617,8344.1v14.2c-2.3,0-4.5-0.5-6.5-1.6l-142.6-82.3c-3.6-2.1-6.5-7-6.5-10.9
		c0-3.7,2.6-8.2,5.9-10.5c-2.9,2.1-2.7,5.2,0.7,7.1l142.6,82.3C-9621.6,8343.6-9619.3,8344.2-9617,8344.1z"/>
	<path id="Tracé_10977" class="st8" d="M-9778.9,8252.9c-3.2-2.3-3.2-5.3-3.2-9.4v-211c0.3-4.6,2.7-8.8,6.5-11.3l251.1-145
		c3.6-2.1,7-0.6,10.3,1.4c3.4,2,5.6,3.6,5.6,7.8v211c-0.3,4.6-2.7,8.8-6.5,11.3l-251.1,145
		C-9771.7,8256.3-9775.4,8255.3-9778.9,8252.9z"/>
	<path id="Tracé_10978" class="st9" d="M-9766.2,8252.6c-5.5,3.7-9.2,2.7-12.7,0.2c-3.2-2.3-3.2-5.3-3.2-9.4v-211
		c0.1-2.3,0.7-4.5,1.9-6.4l9.4,5.4c-1.2,1.9-1.8,4.2-1.9,6.4v211C-9772.7,8253-9769.8,8254.7-9766.2,8252.6z"/>
	<path id="Tracé_10979" class="st7" d="M-9508.5,7885.3c0-4.2-2.9-5.9-6.6-3.8l-251.1,145c-1.9,1.2-3.5,2.9-4.6,4.9l-9.3-5.4h0
		c1.1-2,2.7-3.7,4.6-4.9l251.1-145c3.6-2.1,7-0.6,10.3,1.4S-9508.5,7881.1-9508.5,7885.3z"/>
	<path id="Tracé_10980" class="st9" d="M-9762.7,8034.1l242.1-139.7c2.2-1.3,3.9-0.2,3.9,2.3v193.5c-0.2,2.8-1.6,5.3-3.9,6.8
		l-242.1,139.7c-2.2,1.3-3.9,0.2-3.9-2.3v-193.5C-9766.4,8038.1-9765,8035.6-9762.7,8034.1z"/>
	
		<linearGradient id="Tracé_10981_1_" gradientUnits="userSpaceOnUse" x1="-10613.043" y1="10174.1152" x2="-10613.043" y2="10173.1152" gradientTransform="matrix(244.591 0 0 -338.083 2586210.5 3447590.5)">
		<stop  offset="0" style="stop-color:#A395C8"/>
		<stop  offset="1" style="stop-color:#6964AA"/>
	</linearGradient>
	<path id="Tracé_10981" class="st10" d="M-9762.7,8034.1c-2.3,1.5-3.8,4-3.9,6.8v192.4l240.7-138.9c2.3-1.5,3.8-4,3.9-6.8v-192.4
		L-9762.7,8034.1z"/>
	<path id="Tracé_10982" class="st11" d="M-9762.7,8034.1c-2.3,1.5-3.8,4-3.9,6.8v192.4l240.7-138.9c2.3-1.5,3.8-4,3.9-6.8v-192.4
		L-9762.7,8034.1z"/>
	<path id="Tracé_10983" class="st8" d="M-9748.1,8253l233.1-134.6c2.1-1,4.5-1,6.5,0l6.8,3.6c1.8,1,1.8,2.7,0,3.8l-233.1,134.5
		c-2.1,1-4.5,1-6.5,0l-6.7-3.5C-9749.9,8255.8-9749.9,8254.1-9748.1,8253z"/>
	<path id="Tracé_10984" class="st9" d="M-9729.8,8263.9l233.1-134.6c1.8-1,4-1.2,6-0.3l60.7,35c1.5,0.9,1.2,2.4-0.6,3.5
		l-232.8,134.4c-1.8,1-4.1,1.2-6,0.3l-60.9-34.9C-9731.8,8266.5-9731.6,8264.9-9729.8,8263.9z"/>
	<path id="Tracé_10985" class="st7" d="M-9529.7,8185.3l7.3-4.2c0.3-0.2,0.4-0.4,0.1-0.6l-6.4-3.7c-0.3-0.1-0.7-0.1-1,0.1l-7.3,4.2
		c-0.3,0.2-0.4,0.4-0.1,0.6l6.4,3.7C-9530.4,8185.5-9530.1,8185.5-9529.7,8185.3z M-9539.9,8171l-7.3,4.2c-0.3,0.2-0.4,0.4-0.1,0.6
		l6.4,3.7c0.3,0.1,0.7,0.1,1-0.1l7.3-4.2c0.3-0.2,0.4-0.4,0.1-0.6l-6.4-3.7C-9539.2,8170.8-9539.6,8170.8-9539.9,8171L-9539.9,8171z
		 M-9563.5,8184.6l-12.3,7.1c-0.3,0.2-0.4,0.4-0.1,0.6l6.4,3.7c0.3,0.1,0.7,0.1,1-0.1l12.3-7.1c0.3-0.2,0.4-0.4,0.1-0.6l-6.4-3.7
		C-9562.8,8184.4-9563.2,8184.4-9563.5,8184.6L-9563.5,8184.6z M-9550.6,8177.2l-7.3,4.2c-0.3,0.2-0.4,0.4-0.1,0.6l6.4,3.7
		c0.3,0.1,0.7,0.1,1-0.1l7.3-4.2c0.3-0.2,0.4-0.4,0.1-0.6l-6.4-3.7C-9549.9,8177-9550.3,8177-9550.6,8177.2L-9550.6,8177.2z
		 M-9579.2,8193.7l-7.3,4.2c-0.3,0.2-0.4,0.4-0.1,0.6l6.4,3.7c0.3,0.1,0.7,0.1,1-0.1l7.3-4.2c0.3-0.2,0.4-0.4,0.1-0.6l-6.4-3.7
		C-9578.5,8193.5-9578.9,8193.5-9579.2,8193.7L-9579.2,8193.7z M-9589.9,8199.8l-7.3,4.2c-0.3,0.2-0.4,0.4-0.1,0.6l6.4,3.7
		c0.3,0.1,0.7,0.1,1-0.1l7.3-4.2c0.3-0.2,0.4-0.4,0.1-0.6l-6.4-3.7C-9589.2,8199.6-9589.6,8199.7-9589.9,8199.8L-9589.9,8199.8z
		 M-9562.8,8216.1l7.3-4.2c0.3-0.2,0.4-0.4,0.1-0.6l-6.4-3.7c-0.3-0.1-0.7-0.1-1,0.1l-7.3,4.2c-0.3,0.2-0.4,0.4-0.1,0.6l6.4,3.7
		C-9563.5,8216.3-9563.2,8216.3-9562.8,8216.1L-9562.8,8216.1z M-9573.5,8222.3l7.3-4.2c0.3-0.2,0.4-0.4,0.1-0.6l-6.4-3.7
		c-0.3-0.1-0.7-0.1-1,0.1l-7.3,4.2c-0.3,0.2-0.4,0.4-0.1,0.6l6.4,3.7C-9574.2,8222.5-9573.8,8222.4-9573.5,8222.3z M-9584.2,8228.4
		l7.3-4.2c0.3-0.2,0.4-0.4,0.1-0.6l-6.4-3.7c-0.3-0.1-0.7-0.1-1,0.1l-7.3,4.2c-0.3,0.2-0.4,0.4-0.1,0.6l6.4,3.7
		C-9584.9,8228.6-9584.5,8228.6-9584.2,8228.4z M-9594.8,8234.6l7.3-4.2c0.3-0.2,0.4-0.4,0.1-0.6l-6.4-3.7c-0.3-0.1-0.7-0.1-1,0.1
		l-7.3,4.2c-0.3,0.2-0.4,0.4-0.1,0.6l6.4,3.7C-9595.5,8234.8-9595.2,8234.8-9594.8,8234.6L-9594.8,8234.6z M-9540.4,8191.5l7.3-4.2
		c0.3-0.2,0.4-0.4,0.1-0.6l-6.4-3.7c-0.3-0.1-0.7-0.1-1,0.1l-7.3,4.2c-0.3,0.2-0.4,0.4-0.1,0.6l6.4,3.7
		C-9541.1,8191.7-9540.7,8191.6-9540.4,8191.5z M-9552.2,8209.9l16.3-9.4c0.3-0.2,0.4-0.4,0.1-0.6l-16.6-9.6c-0.3-0.1-0.7-0.1-1,0.1
		l-8.4,4.9c-0.3,0.2-0.4,0.4-0.1,0.6l9.2,5.3c0.3,0.1,0.2,0.4-0.1,0.6l-6.7,3.9c-0.3,0.2-0.4,0.4-0.1,0.6l6.4,3.7
		C-9552.9,8210.1-9552.5,8210.1-9552.2,8209.9z M-9600.5,8206l-7.3,4.2c-0.3,0.2-0.4,0.4-0.1,0.6l6.4,3.7c0.3,0.1,0.7,0.1,1-0.1
		l7.3-4.2c0.3-0.2,0.4-0.4,0.1-0.6l-6.4-3.7C-9599.9,8205.8-9600.2,8205.8-9600.5,8206L-9600.5,8206z M-9611.2,8212.2l-7.3,4.2
		c-0.3,0.2-0.4,0.4-0.1,0.6l6.4,3.7c0.3,0.1,0.7,0.1,1-0.1l7.3-4.2c0.3-0.2,0.4-0.4,0.1-0.6l-6.4-3.7
		C-9610.5,8212-9610.9,8212-9611.2,8212.2z M-9670.5,8277.7c0.3,0.1,0.7,0.1,1-0.1l7.3-4.2c0.3-0.2,0.4-0.4,0.1-0.6l-6.4-3.7
		c-0.3-0.1-0.7-0.1-1,0.1l-7.3,4.2c-0.3,0.2-0.4,0.4-0.1,0.6L-9670.5,8277.7z M-9696.5,8261.4l-7.3,4.2c-0.3,0.2-0.4,0.4-0.1,0.6
		l6.4,3.7c0.3,0.1,0.7,0.1,1-0.1l7.3-4.2c0.3-0.2,0.4-0.4,0.1-0.6l-6.4-3.7C-9695.8,8261.2-9696.2,8261.2-9696.5,8261.4
		L-9696.5,8261.4z M-9683.4,8273.5c0.3,0.1,0.7,0.1,1-0.1l7.3-4.2c0.3-0.2,0.4-0.4,0.1-0.6l-6.4-3.7c-0.3-0.1-0.7-0.1-1,0.1
		l-7.3,4.2c-0.3,0.2-0.4,0.4-0.1,0.6L-9683.4,8273.5z M-9653.8,8280.3l7.3-4.2c0.3-0.2,0.4-0.4,0.1-0.6l-6.4-3.7
		c-0.3-0.1-0.7-0.1-1,0.1l-7.3,4.2c-0.3,0.2-0.4,0.4-0.1,0.6l6.4,3.7C-9654.4,8280.5-9654.1,8280.5-9653.8,8280.3L-9653.8,8280.3z
		 M-9665.4,8286.5c0.3,0.1,0.7,0.1,1-0.1l7.3-4.2c0.3-0.2,0.4-0.4,0.1-0.6l-6.4-3.7c-0.3-0.1-0.7-0.1-1,0.1l-7.3,4.2
		c-0.3,0.2-0.4,0.4-0.1,0.6L-9665.4,8286.5z M-9685.9,8255.3l-7.3,4.2c-0.3,0.2-0.4,0.4-0.1,0.6l6.4,3.7c0.3,0.1,0.7,0.1,1-0.1
		l7.3-4.2c0.3-0.2,0.4-0.4,0.1-0.6l-6.4-3.7C-9685.2,8255.1-9685.6,8255.1-9685.9,8255.3z M-9632.5,8224.5l-7.3,4.2
		c-0.3,0.2-0.4,0.4-0.1,0.6l6.4,3.7c0.3,0.1,0.7,0.1,1-0.1l7.3-4.2c0.3-0.2,0.4-0.4,0.1-0.6l-6.4-3.7
		C-9631.9,8224.3-9632.2,8224.3-9632.5,8224.5L-9632.5,8224.5z M-9675.2,8249.1l-7.3,4.2c-0.3,0.2-0.4,0.4-0.1,0.6l6.4,3.7
		c0.3,0.1,0.7,0.1,1-0.1l7.3-4.2c0.3-0.2,0.4-0.4,0.1-0.6l-6.4-3.7C-9674.5,8248.9-9674.9,8248.9-9675.2,8249.1L-9675.2,8249.1z
		 M-9621.9,8218.3l-7.3,4.2c-0.3,0.2-0.4,0.4-0.1,0.6l6.4,3.7c0.3,0.1,0.7,0.1,1-0.1l7.3-4.2c0.3-0.2,0.4-0.4,0.1-0.6l-6.4-3.7
		C-9621.2,8218.1-9621.6,8218.1-9621.9,8218.3L-9621.9,8218.3z M-9643.2,8230.6l-7.3,4.2c-0.3,0.2-0.4,0.4-0.1,0.6l6.4,3.7
		c0.3,0.1,0.7,0.1,1-0.1l7.3-4.2c0.3-0.2,0.4-0.4,0.1-0.6l-6.4-3.7C-9642.5,8230.4-9642.9,8230.4-9643.2,8230.6L-9643.2,8230.6z
		 M-9653.9,8236.8l-7.3,4.2c-0.3,0.2-0.4,0.4-0.1,0.6l6.4,3.7c0.3,0.1,0.7,0.1,1-0.1l7.3-4.2c0.3-0.2,0.4-0.4,0.1-0.6l-6.4-3.7
		C-9653.2,8236.6-9653.6,8236.6-9653.9,8236.8z M-9664.5,8242.9l-7.3,4.2c-0.3,0.2-0.4,0.4-0.1,0.6l6.4,3.7c0.3,0.1,0.7,0.1,1-0.1
		l7.3-4.2c0.3-0.2,0.4-0.4,0.1-0.6l-6.4-3.7C-9663.8,8242.7-9664.2,8242.8-9664.5,8242.9L-9664.5,8242.9z M-9616.2,8246.9l7.3-4.2
		c0.3-0.2,0.4-0.4,0.1-0.6l-6.4-3.7c-0.3-0.1-0.7-0.1-1,0.1l-7.3,4.2c-0.3,0.2-0.4,0.4-0.1,0.6l6.4,3.7
		C-9616.9,8247.1-9616.5,8247.1-9616.2,8246.9z M-9516.4,8157.4l-7.3,4.2c-0.3,0.2-0.4,0.4-0.1,0.6l6.4,3.7c0.3,0.1,0.7,0.1,1-0.1
		l7.3-4.2c0.3-0.2,0.4-0.4,0.1-0.6l-6.4-3.7C-9515.7,8157.2-9516,8157.2-9516.4,8157.4L-9516.4,8157.4z M-9529.3,8164.8l-7.3,4.2
		c-0.3,0.2-0.4,0.4-0.1,0.6l6.4,3.7c0.3,0.1,0.7,0.1,1-0.1l7.3-4.2c0.3-0.2,0.4-0.4,0.1-0.6l-6.4-3.7
		C-9528.6,8164.6-9529,8164.7-9529.3,8164.8L-9529.3,8164.8z M-9505.7,8151.2l-7.3,4.2c-0.3,0.2-0.4,0.4-0.1,0.6l6.4,3.7
		c0.3,0.1,0.7,0.1,1-0.1l7.3-4.2c0.3-0.2,0.4-0.4,0.1-0.6l-6.4-3.7C-9505,8151-9505.4,8151.1-9505.7,8151.2L-9505.7,8151.2z
		 M-9565.1,8205.7l7.3-4.2c0.3-0.2,0.4-0.4,0.1-0.6l-6.4-3.7c-0.3-0.1-0.7-0.1-1,0.1l-7.3,4.2c-0.3,0.2-0.4,0.4-0.1,0.6l6.4,3.7
		C-9565.8,8205.9-9565.4,8205.9-9565.1,8205.7z M-9494,8145c-0.3-0.1-0.7-0.1-1,0.1l-7.3,4.2c-0.3,0.2-0.4,0.4-0.1,0.6l6.4,3.7
		c0.3,0.1,0.7,0.1,1-0.1l7.3-4.2c0.3-0.2,0.4-0.4,0.1-0.6L-9494,8145z M-9605.5,8240.7l7.3-4.2c0.3-0.2,0.4-0.4,0.1-0.6l-6.4-3.7
		c-0.3-0.1-0.7-0.1-1,0.1l-7.3,4.2c-0.3,0.2-0.4,0.4-0.1,0.6l6.4,3.7C-9606.2,8240.9-9605.8,8240.9-9605.5,8240.7L-9605.5,8240.7z
		 M-9474.7,8165.2l7.3-4.2c0.3-0.2,0.4-0.4,0.1-0.6l-6.4-3.7c-0.3-0.1-0.7-0.1-1,0.1l-7.3,4.2c-0.3,0.2-0.4,0.4-0.1,0.6l6.4,3.7
		C-9475.4,8165.4-9475,8165.4-9474.7,8165.2z M-9495.5,8165.5l7.3-4.2c0.3-0.2,0.4-0.4,0.1-0.6l-6.4-3.7c-0.3-0.1-0.7-0.1-1,0.1
		l-7.3,4.2c-0.3,0.2-0.4,0.4-0.1,0.6l6.4,3.7C-9496.2,8165.7-9495.8,8165.7-9495.5,8165.5L-9495.5,8165.5z M-9483.9,8150.9
		c-0.3-0.1-0.7-0.1-1,0.1l-7.3,4.2c-0.3,0.2-0.4,0.4-0.1,0.6l6.4,3.7c0.3,0.1,0.7,0.1,1-0.1l7.3-4.2c0.3-0.2,0.4-0.4,0.1-0.6
		L-9483.9,8150.9z M-9481.6,8149.6l16.6,9.6c0.3,0.1,0.7,0.1,1-0.1l7.3-4.2c0.3-0.2,0.4-0.4,0.1-0.6l-16.6-9.6
		c-0.3-0.1-0.7-0.1-1,0.1l-7.3,4.2C-9481.8,8149.1-9481.9,8149.4-9481.6,8149.6L-9481.6,8149.6z M-9506.2,8163.2l-7.3,4.2
		c-0.3,0.2-0.4,0.4-0.1,0.6l6.4,3.7c0.3,0.1,0.7,0.1,1-0.1l7.3-4.2c0.3-0.2,0.4-0.4,0.1-0.6l-6.4-3.7
		C-9505.5,8163-9505.9,8163-9506.2,8163.2L-9506.2,8163.2z M-9586.5,8209.6l-7.3,4.2c-0.3,0.2-0.4,0.4-0.1,0.6l6.4,3.7
		c0.3,0.1,0.7,0.1,1-0.1l7.3-4.2c0.3-0.2,0.4-0.4,0.1-0.6l-6.4-3.7C-9585.8,8209.4-9586.2,8209.4-9586.5,8209.6L-9586.5,8209.6z
		 M-9486.4,8171.4c0.3,0.1,0.7,0.1,1-0.1l7.3-4.2c0.3-0.2,0.4-0.4,0.1-0.6l-6.4-3.7c-0.3-0.1-0.7-0.1-1,0.1l-7.3,4.2
		c-0.3,0.2-0.4,0.4-0.1,0.6L-9486.4,8171.4z M-9575.8,8203.4l-7.3,4.2c-0.3,0.2-0.4,0.4-0.1,0.6l6.4,3.7c0.3,0.1,0.7,0.1,1-0.1
		l7.3-4.2c0.3-0.2,0.4-0.4,0.1-0.6l-6.4-3.7C-9575.1,8203.2-9575.5,8203.2-9575.8,8203.4L-9575.8,8203.4z M-9659.8,8271.6
		c0.3,0.1,0.7,0.1,1-0.1l7.3-4.2c0.3-0.2,0.4-0.4,0.1-0.6l-6.4-3.7c-0.3-0.1-0.7-0.1-1,0.1l-7.3,4.2c-0.3,0.2-0.4,0.4-0.1,0.6
		L-9659.8,8271.6z M-9671.8,8258.8l-7.3,4.2c-0.3,0.2-0.4,0.4-0.1,0.6l6.4,3.7c0.3,0.1,0.7,0.1,1-0.1l7.3-4.2
		c0.3-0.2,0.4-0.4,0.1-0.6l-6.4-3.7C-9671.1,8258.6-9671.5,8258.7-9671.8,8258.8L-9671.8,8258.8z M-9648.2,8265.4l7.3-4.2
		c0.3-0.2,0.4-0.4,0.1-0.6l-6.4-3.7c-0.3-0.1-0.7-0.1-1,0.1l-7.3,4.2c-0.3,0.2-0.4,0.4-0.1,0.6l6.4,3.7
		C-9648.9,8265.6-9648.5,8265.5-9648.2,8265.4z M-9637.5,8259.2l7.3-4.2c0.3-0.2,0.4-0.4,0.1-0.6l-6.4-3.7c-0.3-0.1-0.7-0.1-1,0.1
		l-7.3,4.2c-0.3,0.2-0.4,0.4-0.1,0.6l6.4,3.7C-9638.2,8259.4-9637.8,8259.4-9637.5,8259.2L-9637.5,8259.2z M-9626.8,8253l7.3-4.2
		c0.3-0.2,0.4-0.4,0.1-0.6l-6.4-3.7c-0.3-0.1-0.7-0.1-1,0.1l-7.3,4.2c-0.3,0.2-0.4,0.4-0.1,0.6l6.4,3.7
		C-9627.5,8253.2-9627.1,8253.2-9626.8,8253L-9626.8,8253z M-9661.2,8252.7l-7.3,4.2c-0.3,0.2-0.4,0.4-0.1,0.6l6.4,3.7
		c0.3,0.1,0.7,0.1,1-0.1l7.3-4.2c0.3-0.2,0.4-0.4,0.1-0.6l-6.4-3.7C-9660.5,8252.5-9660.8,8252.5-9661.2,8252.7L-9661.2,8252.7z
		 M-9650.5,8246.5l-7.3,4.2c-0.3,0.2-0.4,0.4-0.1,0.6l6.4,3.7c0.3,0.1,0.7,0.1,1-0.1l7.3-4.2c0.3-0.2,0.4-0.4,0.1-0.6l-6.4-3.7
		C-9649.8,8246.3-9650.2,8246.3-9650.5,8246.5L-9650.5,8246.5z M-9607.8,8221.9l-7.3,4.2c-0.3,0.2-0.4,0.4-0.1,0.6l6.4,3.7
		c0.3,0.1,0.7,0.1,1-0.1l7.3-4.2c0.3-0.2,0.4-0.4,0.1-0.6l-6.4-3.7C-9607.1,8221.7-9607.5,8221.7-9607.8,8221.9L-9607.8,8221.9z
		 M-9618.5,8228l-7.3,4.2c-0.3,0.2-0.4,0.4-0.1,0.6l6.4,3.7c0.3,0.1,0.7,0.1,1-0.1l7.3-4.2c0.3-0.2,0.4-0.4,0.1-0.6l-6.4-3.7
		C-9617.8,8227.8-9618.2,8227.9-9618.5,8228L-9618.5,8228z M-9597.2,8215.7l-7.3,4.2c-0.3,0.2-0.4,0.4-0.1,0.6l6.4,3.7
		c0.3,0.1,0.7,0.1,1-0.1l7.3-4.2c0.3-0.2,0.4-0.4,0.1-0.6l-6.4-3.7C-9596.5,8215.5-9596.9,8215.6-9597.2,8215.7L-9597.2,8215.7z
		 M-9639.8,8240.4l-7.3,4.2c-0.3,0.2-0.4,0.4-0.1,0.6l6.4,3.7c0.3,0.1,0.7,0.1,1-0.1l7.3-4.2c0.3-0.2,0.4-0.4,0.1-0.6l-6.4-3.7
		C-9639.1,8240.2-9639.5,8240.2-9639.8,8240.4z M-9629.2,8234.2l-7.3,4.2c-0.3,0.2-0.4,0.4-0.1,0.6l6.4,3.7c0.3,0.1,0.7,0.1,1-0.1
		l7.3-4.2c0.3-0.2,0.4-0.4,0.1-0.6l-6.4-3.7C-9628.5,8234-9628.8,8234-9629.2,8234.2L-9629.2,8234.2z M-9643.1,8274.1l7.3-4.2
		c0.3-0.2,0.4-0.4,0.1-0.6l-6.4-3.7c-0.3-0.1-0.7-0.1-1,0.1l-7.3,4.2c-0.3,0.2-0.4,0.4-0.1,0.6l6.4,3.7
		C-9643.8,8274.3-9643.4,8274.3-9643.1,8274.1L-9643.1,8274.1z M-9699.7,8271.2l-6.4-3.7c-0.3-0.1-0.7-0.1-1,0.1l-7.3,4.2
		c-0.3,0.2-0.4,0.4-0.1,0.6l6.4,3.7c0.3,0.1,0.7,0.1,1-0.1l7.3-4.2C-9699.5,8271.6-9699.5,8271.4-9699.7,8271.2L-9699.7,8271.2z
		 M-9685.7,8274.8l-6.4-3.7c-0.3-0.1-0.7-0.1-1,0.1l-11.2,6.5c-0.3,0.2-0.4,0.4-0.1,0.6l6.4,3.7c0.3,0.1,0.7,0.1,1-0.1l11.2-6.5
		C-9685.5,8275.2-9685.4,8275-9685.7,8274.8L-9685.7,8274.8z M-9709.2,8263.8l-6.4-3.7c-0.3-0.1-0.7-0.1-1,0.1l-9,5.2
		c-0.3,0.2-0.4,0.4-0.1,0.6l6.4,3.7c0.3,0.1,0.7,0.1,1-0.1l9-5.2C-9709,8264.2-9709,8264-9709.2,8263.8L-9709.2,8263.8z
		 M-9702.3,8259.8c0.3,0.1,0.7,0.1,1-0.1l7.3-4.2c0.3-0.2,0.4-0.4,0.1-0.6l-6.4-3.7c-0.3-0.1-0.7-0.1-1,0.1l-7.3,4.2
		c-0.3,0.2-0.4,0.4-0.1,0.6L-9702.3,8259.8z M-9672.8,8279l-6.4-3.7c-0.3-0.1-0.7-0.1-1,0.1l-14,8.1c-0.3,0.2-0.4,0.4-0.1,0.6
		l6.4,3.7c0.3,0.1,0.7,0.1,1-0.1l14-8.1C-9672.6,8279.4-9672.5,8279.2-9672.8,8279L-9672.8,8279z M-9667.7,8287.8l-6.4-3.7
		c-0.3-0.1-0.7-0.1-1,0.1l-9,5.2c-0.3,0.2-0.4,0.4-0.1,0.6l6.4,3.7c0.3,0.1,0.7,0.1,1-0.1l9-5.2
		C-9667.5,8288.2-9667.4,8287.9-9667.7,8287.8L-9667.7,8287.8z M-9623,8214.1c0.3,0.1,0.7,0.1,1-0.1l7.3-4.2
		c0.3-0.2,0.4-0.4,0.1-0.6l-6.4-3.7c-0.3-0.1-0.7-0.1-1,0.1l-7.3,4.2c-0.3,0.2-0.4,0.4-0.1,0.6L-9623,8214.1z M-9644.4,8226.4
		c0.3,0.1,0.7,0.1,1-0.1l7.3-4.2c0.3-0.2,0.4-0.4,0.1-0.6l-6.4-3.7c-0.3-0.1-0.7-0.1-1,0.1l-7.3,4.2c-0.3,0.2-0.4,0.4-0.1,0.6
		L-9644.4,8226.4z M-9691.7,8253.7c0.3,0.1,0.7,0.1,1-0.1l7.3-4.2c0.3-0.2,0.4-0.4,0.1-0.6l-6.4-3.7c-0.3-0.1-0.7-0.1-1,0.1
		l-7.3,4.2c-0.3,0.2-0.4,0.4-0.1,0.6L-9691.7,8253.7z M-9633.7,8220.2c0.3,0.1,0.7,0.1,1-0.1l7.3-4.2c0.3-0.2,0.4-0.4,0.1-0.6
		l-6.4-3.7c-0.3-0.1-0.7-0.1-1,0.1l-7.3,4.2c-0.3,0.2-0.4,0.4-0.1,0.6L-9633.7,8220.2z M-9655,8232.5c0.3,0.1,0.7,0.1,1-0.1l7.3-4.2
		c0.3-0.2,0.4-0.4,0.1-0.6l-6.4-3.7c-0.3-0.1-0.7-0.1-1,0.1l-7.3,4.2c-0.3,0.2-0.4,0.4-0.1,0.6L-9655,8232.5z M-9661.8,8288.6
		c-0.3-0.1-0.7-0.1-1,0.1l-11.2,6.5c-0.3,0.2-0.4,0.4-0.1,0.6l6.4,3.7c0.3,0.1,0.7,0.1,1-0.1l11.2-6.5c0.3-0.2,0.4-0.4,0.1-0.6
		L-9661.8,8288.6z M-9670.3,8241.4c0.3,0.1,0.7,0.1,1-0.1l7.3-4.2c0.3-0.2,0.4-0.4,0.1-0.6l-6.4-3.7c-0.3-0.1-0.7-0.1-1,0.1
		l-7.3,4.2c-0.3,0.2-0.4,0.4-0.1,0.6L-9670.3,8241.4z M-9681,8247.5c0.3,0.1,0.7,0.1,1-0.1l7.3-4.2c0.3-0.2,0.4-0.4,0.1-0.6
		l-6.4-3.7c-0.3-0.1-0.7-0.1-1,0.1l-7.3,4.2c-0.3,0.2-0.4,0.4-0.1,0.6L-9681,8247.5z M-9464.2,8174.5c-0.3-0.1-0.7-0.1-1,0.1
		l-18,10.4c-0.3,0.2-0.4,0.4-0.1,0.6l6.4,3.7c0.3,0.1,0.7,0.1,1-0.1l18-10.4c0.3-0.2,0.4-0.4,0.1-0.6L-9464.2,8174.5z
		 M-9487.7,8188.2c-0.3-0.1-0.7-0.1-1,0.1l-7.3,4.2c-0.3,0.2-0.4,0.4-0.1,0.6l6.4,3.7c0.3,0.1,0.7,0.1,1-0.1l7.3-4.2
		c0.3-0.2,0.4-0.4,0.1-0.6L-9487.7,8188.2z M-9632.4,8268l7.3-4.2c0.3-0.2,0.4-0.4,0.1-0.6l-6.4-3.7c-0.3-0.1-0.7-0.1-1,0.1
		l-7.3,4.2c-0.3,0.2-0.4,0.4-0.1,0.6l6.4,3.7C-9633.1,8268.2-9632.7,8268.1-9632.4,8268z M-9509.1,8200.5c-0.3-0.1-0.7-0.1-1,0.1
		l-7.3,4.2c-0.3,0.2-0.4,0.4-0.1,0.6l6.4,3.7c0.3,0.1,0.7,0.1,1-0.1l7.3-4.2c0.3-0.2,0.4-0.4,0.1-0.6L-9509.1,8200.5z
		 M-9453.5,8168.4c-0.3-0.1-0.7-0.1-1,0.1l-7.3,4.2c-0.3,0.2-0.4,0.4-0.1,0.6l6.4,3.7c0.3,0.1,0.7,0.1,1-0.1l7.3-4.2
		c0.3-0.2,0.4-0.4,0.1-0.6L-9453.5,8168.4z M-9436.4,8165.9l-16.6-9.6c-0.3-0.1-0.7-0.1-1,0.1l-7.3,4.2c-0.3,0.2-0.4,0.4-0.1,0.6
		l16.6,9.6c0.3,0.1,0.7,0.1,1-0.1l7.3-4.2C-9436.2,8166.4-9436.2,8166.1-9436.4,8165.9L-9436.4,8165.9z M-9548.9,8223.5
		c-0.3-0.1-0.7-0.1-1,0.1l-9,5.2c-0.3,0.2-0.4,0.4-0.1,0.6l6.4,3.7c0.3,0.1,0.7,0.1,1-0.1l9-5.2c0.3-0.2,0.4-0.4,0.1-0.6
		L-9548.9,8223.5z M-9522,8207.9c-0.3-0.1-0.7-0.1-1,0.1l-11.2,6.5c-0.3,0.2-0.4,0.4-0.1,0.6l6.4,3.7c0.3,0.1,0.7,0.1,1-0.1
		l11.2-6.5c0.3-0.2,0.4-0.4,0.1-0.6L-9522,8207.9z M-9573.6,8237.7c-0.3-0.1-0.7-0.1-1,0.1l-60.1,34.7c-0.3,0.2-0.4,0.4-0.1,0.6
		l6.4,3.7c0.3,0.1,0.7,0.1,1-0.1l60.1-34.7c0.3-0.2,0.4-0.4,0.1-0.6L-9573.6,8237.7z M-9637.1,8274.4c-0.3-0.1-0.7-0.1-1,0.1l-9,5.2
		c-0.3,0.2-0.4,0.4-0.1,0.6l6.4,3.7c0.3,0.1,0.7,0.1,1-0.1l9-5.2c0.3-0.2,0.4-0.4,0.1-0.6L-9637.1,8274.4z M-9561.3,8230.6
		c-0.3-0.1-0.7-0.1-1,0.1l-9,5.2c-0.3,0.2-0.4,0.4-0.1,0.6l6.4,3.7c0.3,0.1,0.7,0.1,1-0.1l9-5.2c0.3-0.2,0.4-0.4,0.1-0.6
		L-9561.3,8230.6z M-9649.4,8281.5c-0.3-0.1-0.7-0.1-1,0.1l-9,5.2c-0.3,0.2-0.4,0.4-0.1,0.6l6.4,3.7c0.3,0.1,0.7,0.1,1-0.1l9-5.2
		c0.3-0.2,0.4-0.4,0.1-0.6L-9649.4,8281.5z M-9536.6,8216.4c-0.3-0.1-0.7-0.1-1,0.1l-9,5.2c-0.3,0.2-0.4,0.4-0.1,0.6l6.4,3.7
		c0.3,0.1,0.7,0.1,1-0.1l9-5.2c0.3-0.2,0.4-0.4,0.1-0.6L-9536.6,8216.4z M-9498.4,8194.3c-0.3-0.1-0.7-0.1-1,0.1l-7.3,4.2
		c-0.3,0.2-0.4,0.4-0.1,0.6l6.4,3.7c0.3,0.1,0.7,0.1,1-0.1l7.3-4.2c0.3-0.2,0.4-0.4,0.1-0.6L-9498.4,8194.3z M-9475.3,8177.2
		l7.3-4.2c0.3-0.2,0.4-0.4,0.1-0.6l-6.4-3.7c-0.3-0.1-0.7-0.1-1,0.1l-7.3,4.2c-0.3,0.2-0.4,0.4-0.1,0.6l6.4,3.7
		C-9475.9,8177.4-9475.6,8177.4-9475.3,8177.2L-9475.3,8177.2z M-9519.1,8179.1l7.3-4.2c0.3-0.2,0.4-0.4,0.1-0.6l-6.4-3.7
		c-0.3-0.1-0.7-0.1-1,0.1l-7.3,4.2c-0.3,0.2-0.4,0.4-0.1,0.6l6.4,3.7C-9519.8,8179.3-9519.4,8179.3-9519.1,8179.1L-9519.1,8179.1z
		 M-9547.1,8218.7l21.3-12.3c0.3-0.2,0.4-0.4,0.1-0.6l-6.4-3.7c-0.3-0.1-0.7-0.1-1,0.1l-21.3,12.3c-0.3,0.2-0.4,0.4-0.1,0.6l6.4,3.7
		C-9547.8,8218.9-9547.4,8218.9-9547.1,8218.7L-9547.1,8218.7z M-9486.9,8183.4c0.3,0.1,0.7,0.1,1-0.1l7.3-4.2
		c0.3-0.2,0.4-0.4,0.1-0.6l-6.4-3.7c-0.3-0.1-0.7-0.1-1,0.1l-7.3,4.2c-0.3,0.2-0.4,0.4-0.1,0.6L-9486.9,8183.4z M-9496,8177.5
		l7.3-4.2c0.3-0.2,0.4-0.4,0.1-0.6l-6.4-3.7c-0.3-0.1-0.7-0.1-1,0.1l-7.3,4.2c-0.3,0.2-0.4,0.4-0.1,0.6l6.4,3.7
		C-9496.7,8177.7-9496.4,8177.7-9496,8177.5L-9496,8177.5z M-9557.8,8224.9l7.3-4.2c0.3-0.2,0.4-0.4,0.1-0.6l-6.4-3.7
		c-0.3-0.1-0.7-0.1-1,0.1l-7.3,4.2c-0.3,0.2-0.4,0.4-0.1,0.6l6.4,3.7C-9558.5,8225.1-9558.1,8225-9557.8,8224.9z M-9510.5,8197
		c0.3,0.1,0.7,0.1,1-0.1l7.3-4.2c0.3-0.2,0.4-0.4,0.1-0.6l-6.4-3.7c-0.3-0.1-0.7-0.1-1,0.1l-7.3,4.2c-0.3,0.2-0.4,0.4-0.1,0.6
		L-9510.5,8197z M-9611.1,8255.6l7.3-4.2c0.3-0.2,0.4-0.4,0.1-0.6l-6.4-3.7c-0.3-0.1-0.7-0.1-1,0.1l-7.3,4.2
		c-0.3,0.2-0.4,0.4-0.1,0.6l6.4,3.7C-9611.8,8255.8-9611.4,8255.8-9611.1,8255.6L-9611.1,8255.6z M-9600.4,8249.5l7.3-4.2
		c0.3-0.2,0.4-0.4,0.1-0.6l-6.4-3.7c-0.3-0.1-0.7-0.1-1,0.1l-7.3,4.2c-0.3,0.2-0.4,0.4-0.1,0.6l6.4,3.7
		C-9601.1,8249.7-9600.7,8249.7-9600.4,8249.5L-9600.4,8249.5z M-9621.8,8261.8l7.3-4.2c0.3-0.2,0.4-0.4,0.1-0.6l-6.4-3.7
		c-0.3-0.1-0.7-0.1-1,0.1l-7.3,4.2c-0.3,0.2-0.4,0.4-0.1,0.6l6.4,3.7C-9622.5,8262-9622.1,8262-9621.8,8261.8L-9621.8,8261.8z
		 M-9579.1,8237.2l7.3-4.2c0.3-0.2,0.4-0.4,0.1-0.6l-6.4-3.7c-0.3-0.1-0.7-0.1-1,0.1l-7.3,4.2c-0.3,0.2-0.4,0.4-0.1,0.6l6.4,3.7
		C-9579.8,8237.4-9579.4,8237.4-9579.1,8237.2L-9579.1,8237.2z M-9589.8,8243.3l7.3-4.2c0.3-0.2,0.4-0.4,0.1-0.6l-6.4-3.7
		c-0.3-0.1-0.7-0.1-1,0.1l-7.3,4.2c-0.3,0.2-0.4,0.4-0.1,0.6l6.4,3.7C-9590.5,8243.5-9590.1,8243.5-9589.8,8243.3L-9589.8,8243.3z
		 M-9568.4,8231l7.3-4.2c0.3-0.2,0.4-0.4,0.1-0.6l-6.4-3.7c-0.3-0.1-0.7-0.1-1,0.1l-7.3,4.2c-0.3,0.2-0.4,0.4-0.1,0.6l6.4,3.7
		C-9569.1,8231.2-9568.8,8231.2-9568.4,8231L-9568.4,8231z M-9509.5,8145.8c0.3,0.1,0.7,0.1,1-0.1l7.3-4.2c0.3-0.2,0.4-0.4,0.1-0.6
		l-1.7-1c-0.3-0.1-0.7-0.1-1,0.1l-7.3,4.2c-0.3,0.2-0.4,0.4-0.1,0.6L-9509.5,8145.8z M-9562.7,8179.2c0.3,0.1,0.7,0.1,1-0.1l7.3-4.2
		c0.3-0.2,0.4-0.4,0.1-0.6l-6.4-3.7c-0.3-0.1-0.7-0.1-1,0.1l-7.3,4.2c-0.3,0.2-0.4,0.4-0.1,0.6L-9562.7,8179.2z M-9541.4,8166.9
		c0.3,0.1,0.7,0.1,1-0.1l7.3-4.2c0.3-0.2,0.4-0.4,0.1-0.6l-6.4-3.7c-0.3-0.1-0.7-0.1-1,0.1l-7.3,4.2c-0.3,0.2-0.4,0.4-0.1,0.6
		L-9541.4,8166.9z M-9575.7,8186.7c0.3,0.1,0.7,0.1,1-0.1l7.3-4.2c0.3-0.2,0.4-0.4,0.1-0.6l-6.4-3.7c-0.3-0.1-0.7-0.1-1,0.1
		l-7.3,4.2c-0.3,0.2-0.4,0.4-0.1,0.6L-9575.7,8186.7z M-9552,8173.1c0.3,0.1,0.7,0.1,1-0.1l7.3-4.2c0.3-0.2,0.4-0.4,0.1-0.6
		l-6.4-3.7c-0.3-0.1-0.7-0.1-1,0.1l-7.3,4.2c-0.3,0.2-0.4,0.4-0.1,0.6L-9552,8173.1z M-9597.1,8199.1c0.3,0.1,0.7,0.1,1-0.1l7.3-4.2
		c0.3-0.2,0.4-0.4,0.1-0.6l-6.4-3.7c-0.3-0.1-0.7-0.1-1,0.1l-7.3,4.2c-0.3,0.2-0.4,0.4-0.1,0.6L-9597.1,8199.1z M-9586.4,8192.9
		c0.3,0.1,0.7,0.1,1-0.1l7.3-4.2c0.3-0.2,0.4-0.4,0.1-0.6l-6.4-3.7c-0.3-0.1-0.7-0.1-1,0.1l-7.3,4.2c-0.3,0.2-0.4,0.4-0.1,0.6
		L-9586.4,8192.9z M-9530.8,8158.1c0.3,0.1,0.7,0.1,1-0.1l7.3-4.2c0.3-0.2,0.4-0.4,0.1-0.6l-1.7-1c-0.3-0.1-0.7-0.1-1,0.1l-7.3,4.2
		c-0.3,0.2-0.4,0.4-0.1,0.6L-9530.8,8158.1z M-9498.8,8139.6c0.3,0.1,0.7,0.1,1-0.1l7.3-4.2c0.3-0.2,0.4-0.4,0.1-0.6l-1.7-1
		c-0.3-0.1-0.7-0.1-1,0.1l-7.3,4.2c-0.3,0.2-0.4,0.4-0.1,0.6L-9498.8,8139.6z M-9485.3,8147.4c0.3,0.1,0.7,0.1,1-0.1l7.3-4.2
		c0.3-0.2,0.4-0.4,0.1-0.6l-6.4-3.7c-0.3-0.1-0.7-0.1-1,0.1l-7.3,4.2c-0.3,0.2-0.4,0.4-0.1,0.6L-9485.3,8147.4z M-9464.6,8171.1
		l7.3-4.2c0.3-0.2,0.4-0.4,0.1-0.6l-6.4-3.7c-0.3-0.1-0.7-0.1-1,0.1l-7.3,4.2c-0.3,0.2-0.4,0.4-0.1,0.6l6.4,3.7
		C-9465.3,8171.3-9464.9,8171.2-9464.6,8171.1L-9464.6,8171.1z M-9520.2,8151.9c0.3,0.1,0.7,0.1,1-0.1l7.3-4.2
		c0.3-0.2,0.4-0.4,0.1-0.6l-1.7-1c-0.3-0.1-0.7-0.1-1,0.1l-7.3,4.2c-0.3,0.2-0.4,0.4-0.1,0.6L-9520.2,8151.9z M-9607.7,8205.2
		c0.3,0.1,0.7,0.1,1-0.1l7.3-4.2c0.3-0.2,0.4-0.4,0.1-0.6l-6.4-3.7c-0.3-0.1-0.7-0.1-1,0.1l-7.3,4.2c-0.3,0.2-0.4,0.4-0.1,0.6
		L-9607.7,8205.2z"/>
	<path id="Tracé_10986" class="st9" d="M-9575.1,8260.3l1.5,0.9l39.7,22.9l70.7-40.8l1.5-0.8l-41.2-23.8L-9575.1,8260.3z"/>
	<path id="Tracé_10987" class="st8" d="M-9463.8,8243.7l-39.1-22.6l-70,40.4l39.1,22.6L-9463.8,8243.7z"/>
	
		<linearGradient id="Tracé_10988_1_" gradientUnits="userSpaceOnUse" x1="-10613.6191" y1="10175.1377" x2="-10613.6191" y2="10174.1377" gradientTransform="matrix(206.931 0 0 -176.344 2186764 1802239.5)">
		<stop  offset="0" style="stop-color:#A395C8"/>
		<stop  offset="1" style="stop-color:#6964AA"/>
	</linearGradient>
	<path id="Tracé_10988" class="st12" d="M-9419.2,7929.4c0-3-1-5.1-2.7-6.1c-1.7-1-11.5-6.7-13.3-7.7c-1.7-1-4-0.8-6.6,0.7
		l-184.3,106.4v61l13.2,7.6l184.3-106.4c5.2-3,9.4-10.3,9.4-16.3L-9419.2,7929.4z"/>
	<path id="Tracé_10989" class="st13" d="M-9419.2,7929.4c0-3-1-5.1-2.7-6.1c-1.7-1-11.5-6.7-13.3-7.7c-1.7-1-4-0.8-6.6,0.7
		l-184.3,106.4v61l13.2,7.6l184.3-106.4c5.2-3,9.4-10.3,9.4-16.3L-9419.2,7929.4z"/>
	<path id="Tracé_10990" class="st14" d="M-9428.6,7924c5.2-3,9.4-0.6,9.4,5.4v39.3c0,6-4.2,13.3-9.4,16.3l-184.3,106.4v-61
		L-9428.6,7924z"/>
	<path id="Tracé_10991" class="st15" d="M-9430.5,7980c3.7-2.4,6.1-6.5,6.3-11v-36.3c0-2.9-2-4-4.5-2.6l-180.5,104.3v48.8
		L-9430.5,7980z"/>
	<g id="Groupe_9016" transform="translate(-8706.531 7954.516)">
		<path id="Tracé_10992" class="st7" d="M-871.2,98.6c0,0.3-0.1,0.6-0.2,0.8c-0.1,0.2-0.3,0.4-0.5,0.6l-3.1,1.8
			c-0.1,0.1-0.3,0.1-0.5,0c-0.1-0.2-0.2-0.4-0.2-0.6v-9.6c0.1-0.8-0.1-1.6-0.5-2.3c-0.3-0.5-0.9-0.5-1.6,0c-0.7,0.4-1.3,1.1-1.6,1.9
			c-0.4,0.9-0.5,1.9-0.5,2.9v9.6c0,0.3-0.1,0.6-0.2,0.8c-0.1,0.2-0.3,0.4-0.5,0.6l-3.1,1.8c-0.1,0.1-0.3,0.1-0.5,0
			c-0.1-0.2-0.2-0.4-0.2-0.6v-25c0-0.3,0.1-0.6,0.2-0.8c0.1-0.2,0.3-0.4,0.5-0.6l3.1-1.8c0.1-0.1,0.3-0.1,0.5,0
			c0.1,0.2,0.2,0.4,0.2,0.6v8.1c0.3-0.8,0.8-1.6,1.3-2.3c0.5-0.8,1.2-1.4,2.1-1.9c0.7-0.4,1.4-0.7,2.2-0.7c0.6-0.1,1.2,0.2,1.7,0.6
			c0.5,0.6,0.9,1.3,1.1,2.1c0.3,1.2,0.4,2.4,0.4,3.7L-871.2,98.6z"/>
		<path id="Tracé_10993" class="st7" d="M-862.6,87c0,0.4,0,0.8,0.2,1.2c0.2,0.2,0.4,0.2,0.8,0l2-1.1c0.1-0.1,0.3-0.1,0.5,0
			c0.1,0.2,0.2,0.4,0.2,0.6v3.8c0,0.3-0.1,0.6-0.2,0.8c-0.1,0.2-0.3,0.4-0.5,0.6l-2.4,1.4c-0.6,0.4-1.4,0.6-2.1,0.7
			c-0.6,0-1.2-0.2-1.6-0.6c-0.5-0.5-0.9-1.1-1-1.8c-0.3-1-0.4-1.9-0.4-2.9v-6.4l-1.8,1.1c-0.1,0.1-0.3,0.1-0.5,0
			c-0.1-0.2-0.2-0.4-0.2-0.6v-3.8c0-0.3,0.1-0.6,0.2-0.8c0.1-0.2,0.3-0.4,0.5-0.6l1.8-1.1v-6.2c0-0.3,0.1-0.6,0.2-0.8
			c0.1-0.2,0.3-0.4,0.5-0.6l3.1-1.8c0.1-0.1,0.3-0.1,0.5,0c0.1,0.2,0.2,0.4,0.2,0.6v6.2l2.8-1.6c0.1-0.1,0.3-0.1,0.5,0
			c0.1,0.2,0.2,0.4,0.2,0.6v3.8c0,0.3-0.1,0.6-0.2,0.8c-0.1,0.2-0.3,0.4-0.5,0.6l-2.8,1.6L-862.6,87z"/>
		<path id="Tracé_10994" class="st7" d="M-850.9,80.2c0,0.4,0,0.8,0.2,1.2c0.2,0.2,0.4,0.2,0.8,0l2-1.1c0.1-0.1,0.3-0.1,0.5,0
			c0.1,0.2,0.2,0.4,0.2,0.6v3.8c0,0.3-0.1,0.6-0.2,0.8c-0.1,0.2-0.3,0.4-0.5,0.6l-2.4,1.4c-0.6,0.4-1.4,0.6-2.1,0.7
			c-0.6,0-1.2-0.2-1.6-0.5c-0.5-0.5-0.9-1.1-1-1.8c-0.3-1-0.4-1.9-0.4-2.9v-6.4l-1.8,1.1c-0.1,0.1-0.3,0.1-0.5,0
			c-0.1-0.2-0.2-0.4-0.2-0.6v-3.8c0-0.3,0.1-0.6,0.2-0.8c0.1-0.2,0.3-0.4,0.5-0.6l1.8-1.1v-6.2c0-0.3,0.1-0.6,0.2-0.8
			c0.1-0.2,0.3-0.4,0.5-0.6l3.1-1.8c0.1-0.1,0.3-0.1,0.5,0c0.1,0.2,0.2,0.4,0.2,0.6v6.2l2.8-1.6c0.1-0.1,0.3-0.1,0.5,0
			c0.1,0.2,0.2,0.4,0.2,0.6V71c0,0.3-0.1,0.6-0.2,0.8c-0.1,0.2-0.3,0.4-0.5,0.6l-2.8,1.6L-850.9,80.2z"/>
		<path id="Tracé_10995" class="st7" d="M-837.3,80.5c-0.4,0.2-0.8,0.4-1.3,0.5c-0.3,0.1-0.6,0-0.9,0c-0.2-0.1-0.5-0.2-0.7-0.4
			c-0.2-0.1-0.3-0.3-0.4-0.5v8.1c0,0.3-0.1,0.6-0.2,0.8c-0.1,0.2-0.3,0.4-0.5,0.6l-3.1,1.8c-0.1,0.1-0.3,0.1-0.5,0
			c-0.1-0.2-0.2-0.4-0.2-0.6v-25c0-0.3,0.1-0.6,0.2-0.8c0.1-0.2,0.3-0.4,0.5-0.6l3-1.7c0.1-0.1,0.3-0.1,0.5,0
			c0.1,0.2,0.2,0.4,0.2,0.6v0.9c0.1-0.3,0.3-0.7,0.5-1.1c0.2-0.4,0.4-0.8,0.6-1.1c0.3-0.4,0.6-0.7,0.9-1.1c0.4-0.4,0.9-0.7,1.4-1
			c0.6-0.4,1.4-0.6,2.1-0.7c0.6,0,1.3,0.2,1.7,0.6c0.6,0.6,1,1.3,1.2,2c0.3,1.2,0.5,2.4,0.5,3.6c0,0.4,0,0.9,0,1.5
			c0,0.6,0,1.2,0,1.6c0,1.4-0.2,2.8-0.5,4.2c-0.3,1.2-0.7,2.3-1.2,3.4c-0.5,0.9-1,1.8-1.7,2.6C-835.8,79.4-836.5,80-837.3,80.5z
			 M-836.2,70.6c0-0.7,0-1.4,0-2.1c0-0.7-0.2-1.4-0.6-2c-0.3-0.5-0.9-0.5-1.7,0c-0.4,0.2-0.7,0.5-0.9,0.8c-0.3,0.3-0.5,0.7-0.6,1.1
			c-0.2,0.4-0.3,0.8-0.4,1.2c-0.1,0.4-0.2,0.8-0.2,1.2c0,0.4,0,0.9,0,1.4s0,0.9,0,1.3c0,0.3,0.1,0.7,0.2,1c0.1,0.3,0.2,0.5,0.4,0.7
			c0.2,0.2,0.4,0.3,0.7,0.3c0.3,0,0.7-0.1,0.9-0.3c0.8-0.4,1.4-1.1,1.7-1.9C-836.4,72.4-836.2,71.5-836.2,70.6L-836.2,70.6z"/>
		<path id="Tracé_10996" class="st7" d="M-824.9,58.5c0,0.3-0.1,0.6-0.2,0.8c-0.1,0.2-0.3,0.4-0.5,0.6l-3.2,1.9
			c-0.1,0.1-0.3,0.1-0.5,0c-0.1-0.2-0.2-0.4-0.2-0.6v-5c0-0.3,0.1-0.6,0.2-0.8c0.1-0.2,0.3-0.4,0.5-0.6l3.2-1.9
			c0.1-0.1,0.3-0.1,0.5,0c0.1,0.2,0.2,0.4,0.2,0.6V58.5z M-824.9,71.9c0,0.3-0.1,0.6-0.2,0.8c-0.1,0.2-0.3,0.4-0.5,0.6l-3.2,1.9
			c-0.1,0.1-0.3,0.1-0.5,0c-0.1-0.2-0.2-0.4-0.2-0.6v-5c0-0.3,0.1-0.6,0.2-0.8c0.1-0.2,0.3-0.4,0.5-0.6l3.2-1.9
			c0.1-0.1,0.3-0.1,0.5,0c0.1,0.2,0.2,0.4,0.2,0.6V71.9z"/>
		<path id="Tracé_10997" class="st7" d="M-814.6,38.1c0.1-0.3,0.2-0.7,0.4-1c0.2-0.3,0.4-0.6,0.7-0.8l3.1-1.8
			c0.1-0.1,0.3-0.1,0.4,0c0.1,0.1,0.2,0.3,0.2,0.5c0,0.1,0,0.2,0,0.4l-8.3,35.6c-0.1,0.3-0.2,0.7-0.3,1c-0.2,0.3-0.4,0.6-0.7,0.8
			l-3,1.7c-0.1,0.1-0.3,0.1-0.4,0c-0.1-0.1-0.2-0.3-0.2-0.5c0-0.1,0-0.3,0-0.4L-814.6,38.1z"/>
		<path id="Tracé_10998" class="st7" d="M-806.1,33.2c0.1-0.3,0.2-0.7,0.4-1c0.2-0.3,0.4-0.6,0.7-0.8l3.1-1.8
			c0.1-0.1,0.3-0.1,0.4,0c0.1,0.1,0.2,0.3,0.2,0.5c0,0.1,0,0.2,0,0.4l-8.3,35.6c-0.1,0.3-0.2,0.7-0.3,1c-0.2,0.3-0.4,0.6-0.7,0.8
			l-3,1.7c-0.1,0.1-0.3,0.1-0.4,0c-0.1-0.1-0.2-0.3-0.2-0.5c0-0.1,0-0.3,0-0.4L-806.1,33.2z"/>
		<path id="Tracé_10999" class="st7" d="M-789.7,32.8c0.2-0.1,0.4-0.1,0.6,0c0.1,0.1,0.2,0.3,0.3,0.5l1.8,7.6l1.8-9.7
			c0.1-0.3,0.2-0.5,0.3-0.8c0.1-0.3,0.3-0.5,0.6-0.6l3.1-1.8c0.1-0.1,0.3-0.1,0.4,0c0.1,0.2,0.2,0.3,0.2,0.5c0,0.1,0,0.2,0,0.3
			l-3.9,19.9c-0.1,0.3-0.1,0.5-0.3,0.8c-0.1,0.3-0.3,0.5-0.6,0.6l-2.8,1.6c-0.2,0.1-0.4,0.1-0.5,0c-0.1-0.1-0.2-0.3-0.3-0.5l-1.8-7
			l-1.8,9c-0.1,0.3-0.2,0.5-0.3,0.8c-0.1,0.3-0.3,0.5-0.5,0.6l-2.8,1.6c-0.2,0.1-0.4,0.1-0.6,0c-0.1-0.1-0.2-0.3-0.3-0.5l-3.9-15.4
			c0-0.1,0-0.2,0-0.3c0-0.3,0.1-0.5,0.2-0.7c0.1-0.2,0.2-0.4,0.4-0.5l3.1-1.8c0.2-0.1,0.4-0.1,0.6,0c0.1,0.1,0.2,0.3,0.3,0.5
			l1.8,7.6l1.8-9.7c0.1-0.3,0.2-0.5,0.3-0.8c0.1-0.3,0.3-0.5,0.6-0.6L-789.7,32.8z"/>
		<path id="Tracé_11000" class="st7" d="M-768.3,20.4c0.2-0.1,0.4-0.2,0.6,0c0.1,0.1,0.2,0.3,0.3,0.5l1.8,7.6l1.8-9.7
			c0.1-0.3,0.2-0.5,0.3-0.8c0.1-0.3,0.3-0.5,0.6-0.6l3.1-1.8c0.1-0.1,0.3-0.1,0.4,0c0.1,0.2,0.2,0.3,0.2,0.5c0,0.1,0,0.2,0,0.3
			l-3.9,19.9c-0.1,0.3-0.1,0.5-0.3,0.8c-0.1,0.3-0.3,0.5-0.6,0.6l-2.8,1.6c-0.2,0.1-0.4,0.1-0.5,0c-0.1-0.1-0.2-0.3-0.3-0.5l-1.8-7
			l-1.8,9c-0.1,0.3-0.2,0.5-0.3,0.8c-0.1,0.3-0.3,0.5-0.5,0.6l-2.8,1.6c-0.2,0.1-0.4,0.1-0.6,0c-0.1-0.1-0.2-0.3-0.3-0.5l-3.9-15.4
			c-0.1-0.4,0-0.7,0.1-1c0.1-0.2,0.2-0.4,0.4-0.5l3.1-1.8c0.2-0.1,0.4-0.2,0.6,0c0.1,0.1,0.2,0.3,0.3,0.5l1.8,7.6l1.8-9.7
			c0.1-0.3,0.2-0.5,0.3-0.8c0.1-0.3,0.3-0.5,0.6-0.6L-768.3,20.4z"/>
		<path id="Tracé_11001" class="st7" d="M-746.9,8c0.2-0.1,0.4-0.2,0.6,0c0.1,0.1,0.2,0.3,0.3,0.5l1.8,7.6l1.8-9.7
			c0.1-0.3,0.2-0.5,0.3-0.8c0.1-0.3,0.3-0.5,0.6-0.6l3.1-1.8c0.1-0.1,0.3-0.1,0.4,0c0.1,0.2,0.2,0.4,0.2,0.5c0,0.1,0,0.2,0,0.3
			l-3.9,19.9c-0.1,0.3-0.1,0.5-0.3,0.8c-0.1,0.3-0.3,0.5-0.6,0.6l-2.8,1.6c-0.2,0.1-0.4,0.1-0.5,0c-0.1-0.1-0.2-0.3-0.3-0.5l-1.8-7
			l-1.8,9c-0.1,0.3-0.2,0.5-0.3,0.8c-0.1,0.3-0.3,0.5-0.5,0.6l-2.8,1.6c-0.2,0.1-0.4,0.1-0.6,0c-0.1-0.1-0.2-0.3-0.3-0.5l-3.9-15.4
			c0-0.1,0-0.2,0-0.3c0-0.3,0.1-0.5,0.2-0.7c0.1-0.2,0.2-0.4,0.4-0.5l3.1-1.8c0.2-0.1,0.4-0.2,0.6,0c0.1,0.1,0.2,0.3,0.3,0.5
			l1.8,7.6l1.8-9.7c0.1-0.3,0.2-0.5,0.3-0.8c0.1-0.3,0.3-0.5,0.6-0.6L-746.9,8z"/>
		<path id="Tracé_11002" class="st7" d="M-732.4,18.5c0,0.3-0.1,0.6-0.2,0.8c-0.1,0.2-0.3,0.4-0.5,0.6l-3.2,1.9
			c-0.1,0.1-0.3,0.1-0.5,0c-0.1-0.2-0.2-0.4-0.2-0.6v-5c0-0.3,0.1-0.6,0.2-0.8c0.1-0.2,0.3-0.4,0.5-0.6l3.2-1.9
			c0.1-0.1,0.3-0.1,0.5,0c0.1,0.2,0.2,0.4,0.2,0.6V18.5z"/>
	</g>
	<g id="Circle" transform="translate(-8845.903 7992.234)">
		<path id="Tracé_11003" class="st8" d="M-775.1,20.4L-775.1,20.4L-775.1,20.4L-775.1,20.4L-797.8,7l0,0l-0.1-0.1v0
			c-9.9-6-23.2-5.1-37.5,4.3c-28.7,18.7-50.5,64.2-48.8,101.5c0.9,18.6,7.4,31.7,17.3,37.8l0,0l0.1,0.1l0,0l22.6,13.4l0,0l0.1,0.1v0
			c10,6,23.2,5.1,37.5-4.3c28.7-18.7,50.5-64.2,48.8-101.5C-758.7,39.6-765.2,26.6-775.1,20.4z"/>
		<path id="Tracé_11004" class="st9" d="M-845,163.4l-21.9-13h0l-0.1-0.1c-9.9-6.1-16.5-19.2-17.3-37.8
			C-885.1,96-881.1,77.7-874,61l0.1-0.4l22.5,13.8c-7.1,16.8-11,35-10.3,51.6C-860.9,144.2-854.6,157.1-845,163.4z"/>
		<path id="Tracé_11005" class="st7" d="M-806.6,159.7c28.7-18.7,50.5-64.2,48.8-101.5c-1.7-37.3-26.4-52.4-55.1-33.6
			c-28.7,18.7-50.5,64.2-48.8,101.5S-835.3,178.4-806.6,159.7z"/>
	</g>
	
		<linearGradient id="Union_27_1_" gradientUnits="userSpaceOnUse" x1="-10619.5762" y1="10176.2803" x2="-10619.5762" y2="10175.2803" gradientTransform="matrix(79.862 0 0 -114.9346 838446.9375 1177633.75)">
		<stop  offset="0" style="stop-color:#A395C8"/>
		<stop  offset="1" style="stop-color:#6964AA"/>
	</linearGradient>
	<path id="Union_27" class="st16" d="M-9679.4,8139.3c-9-5.2-14.2-17.1-14.2-32.7c0-28.7,17.4-62.1,38.8-74.6
		c9.7-5.7,19.3-6.4,26.8-2.1c9,5.2,14.2,17.1,14.2,32.7c0,28.7-17.4,62.1-38.8,74.6c-5.5,3.2-11,4.9-16.1,4.9
		C-9672.5,8142.1-9676.2,8141.1-9679.4,8139.3z M-9677.3,8135.5c4.2,2.4,9.3,2.8,14.7,1.3c-3.5-2.2-6.5-6.9-8.5-13.4
		c-2.7,3.6-5.1,7.5-7.2,11.5C-9678,8135.1-9677.6,8135.3-9677.3,8135.5z M-9660.6,8134.2c0.9,0.6,2,0.8,3.1,0.8
		c0.7-0.4,1.5-0.7,2.3-1.2V8108c-5,3.4-9.5,7.6-13.2,12.3C-9666.5,8127.8-9663.6,8132.5-9660.6,8134.2z M-9680.8,8132.8
		c2.5-4.7,5.4-9.1,8.7-13.3c-1.6-6.9-2.4-13.9-2.4-20.9l-14.7,8.6C-9689.2,8118.5-9686.2,8127.6-9680.8,8132.8L-9680.8,8132.8z
		 M-9652.1,8131.8c0.3-0.2,0.6-0.4,0.9-0.6c5-5.5,9.3-16.2,12.1-29c-4.6,0.2-9,1.6-13,3.9L-9652.1,8131.8z M-9642.5,8123.5
		c5.2-5.6,9.6-11.9,13.2-18.7c-2-1.2-4.1-2.1-6.4-2.4C-9637.2,8109.6-9639.4,8116.7-9642.5,8123.5L-9642.5,8123.5z M-9669.5,8116.3
		c4.1-4.8,8.9-8.9,14.2-12.2v-16.7l-16,9.3C-9671.4,8103.3-9670.8,8109.9-9669.5,8116.3L-9669.5,8116.3z M-9689.2,8103.4l14.6-8.5
		c0.1-8.3,0.8-16.6,2.3-24.8c-2.6-0.4-5.1-1.4-7.3-2.7C-9685.1,8078.7-9688.7,8091.4-9689.2,8103.4z M-9652.1,8102.3
		c4.2-2.2,8.9-3.4,13.7-3.5c1.4-7.5,2.2-15,2.3-22.6l-16,9.3L-9652.1,8102.3z M-9627.8,8101.8c5.5-11.3,9.1-24,9.7-36l-14.6,8.5
		c-0.1,8.3-0.8,16.6-2.3,24.8C-9632.5,8099.5-9630.1,8100.5-9627.8,8101.8L-9627.8,8101.8z M-9671.3,8093l16-9.3v-16.8
		c-4.1,2.2-8.7,3.4-13.4,3.5h-0.3C-9670.4,8077.8-9671.2,8085.4-9671.3,8093z M-9652.1,8081.8l16-9.3c0-6.6-0.6-13.1-1.9-19.6
		c-4.1,4.8-8.9,8.9-14.2,12.2L-9652.1,8081.8z M-9632.8,8070.6l14.7-8.6c-0.1-11.3-3.1-20.4-8.5-25.6c-2.5,4.7-5.4,9.1-8.7,13.3
		C-9633.7,8056.5-9632.9,8063.6-9632.8,8070.6z M-9668.3,8067.1c4.6-0.2,9.1-1.6,13-3.9v-25.8c-0.3,0.2-0.6,0.4-0.9,0.6
		C-9661.2,8043.6-9665.6,8054.3-9668.3,8067.1z M-9671.7,8066.9c1.4-7.3,3.7-14.4,6.8-21.2c-5.2,5.6-9.6,11.9-13.2,18.7
		C-9676.2,8065.7-9674,8066.5-9671.7,8066.9L-9671.7,8066.9z M-9652.1,8061.2c5-3.4,9.5-7.6,13.2-12.3c-2.1-7.6-5-12.2-7.9-13.9
		c-0.8-0.5-1.8-0.8-2.8-0.8c-0.1,0-0.2,0-0.3,0c-0.7,0.4-1.5,0.7-2.3,1.2L-9652.1,8061.2z M-9636.4,8045.8c2.7-3.6,5.1-7.5,7.2-11.5
		c-0.3-0.2-0.7-0.4-1-0.6c-2.6-1.5-5.6-2.2-8.5-2.2c-2.1,0-4.2,0.3-6.2,0.9C-9641.3,8034.6-9638.4,8039.2-9636.4,8045.8
		L-9636.4,8045.8z"/>
	<g id="Groupe_9025" transform="translate(-8555.418 7990.945)">
		<path id="Tracé_11010" class="st17" d="M-834,22.1c-0.3-0.6-0.7-1.2-1.3-1.6h0l-3.4-1.9v0c-1.5-0.8-3.3,0-4.2,0.6L-845,18l0,0
			c-2.5-1.5-6.1,1.7-6.9,2.5l-0.9-0.5l0,0c-1.2-0.7-2.8-0.3-4.3,0.5V8.1c0.1-1.1-0.4-2.1-1.2-2.8l0,0l0,0l-0.1,0l-3.3-1.9h0l0,0l0,0
			c-1-0.4-2.1-0.3-3,0.3c-2.6,1.7-4.2,4.4-4.3,7.5v37.5c-0.2-0.1-0.3-0.2-0.5-0.2c-3-2.1-6.1-3.3-8.8-2.8c-2.3,0.5-4.3,1.9-5.6,3.9
			c-1.4,2.5,0.9,4.1,4,7.6c3,3.4,5.7,7.6,8.4,10.1c1.4,1.4,3,2.5,4.7,3.2v4.9l3.3,1.9l25.4-14.7v-4.9c0,0,3.1-12.6,4.2-17.8
			C-833,34.6-832,26.1-834,22.1z"/>
		<path id="Tracé_11011" class="st18" d="M-834,22.1c-0.3-0.6-0.7-1.2-1.3-1.6h0l-3.4-1.9v0c-1.5-0.8-3.3,0-4.2,0.6L-845,18l0,0
			c-2.5-1.5-6.1,1.7-6.9,2.5l-0.9-0.5l0,0c-1.2-0.7-2.8-0.3-4.3,0.5V8.1c0.1-1.1-0.4-2.1-1.2-2.8l0,0l0,0l-0.1,0l-3.3-1.9h0l0,0l0,0
			c-1-0.4-2.1-0.3-3,0.3c-2.6,1.7-4.2,4.4-4.3,7.5v37.5c-0.2-0.1-0.3-0.2-0.5-0.2c-3-2.1-6.1-3.3-8.8-2.8c-2.3,0.5-4.3,1.9-5.6,3.9
			c-1.4,2.5,0.9,4.1,4,7.6c3,3.4,5.7,7.6,8.4,10.1c1.4,1.4,3,2.5,4.7,3.2v4.9l3.3,1.9l25.4-14.7v-4.9c0,0,3.1-12.6,4.2-17.8
			C-833,34.6-832,26.1-834,22.1z"/>
	</g>
	<path id="Tracé_11012" class="st19" d="M-9412.5,8011.3v4.2l0,0c1-0.9,2.1-1.6,3.3-2.2L-9412.5,8011.3z M-9397.1,8009.5
		c-0.4,0.2-0.8,0.4-1.2,0.6l1.1,0.6c0.7,0.4,1.3,1,1.6,1.8c0.6-0.4,1.2-0.8,1.9-1.1L-9397.1,8009.5z M-9405,8009.6
		c-0.8,0.5-1.6,1.1-2.3,1.8l2.2,1.3c0,0,0.1,0,0.1,0.1c0.3,0.2,0.6,0.4,0.9,0.7l0,0c0.7-0.7,1.5-1.4,2.3-1.9L-9405,8009.6z
		 M-9424.5,8002.1v37.5c1.2,0.6,2.3,1.3,3.3,2.1v-37.6L-9424.5,8002.1z M-9412.5,8011.3L-9412.5,8011.3L-9412.5,8011.3
		L-9412.5,8011.3z M-9423.7,8060.1c-2.7-2.6-5.4-6.7-8.4-10.1c-2.8-3.3-5.1-4.9-4.2-7.1l-3.3-1.9c-0.9,2.3,1.3,3.9,4.2,7.1
		c3,3.4,5.7,7.6,8.4,10.1c1.4,1.4,3,2.5,4.7,3.2v4.9l3.3,1.9v-4.9C-9420.7,8062.5-9422.3,8061.4-9423.7,8060.1L-9423.7,8060.1z"/>
	<path id="Tracé_11013" class="st20" d="M-9412.5,8011.3v4.2l0,0c1-0.9,2.1-1.6,3.3-2.2L-9412.5,8011.3z M-9397.1,8009.5
		c-0.4,0.2-0.8,0.4-1.2,0.6l1.1,0.6c0.7,0.4,1.3,1,1.6,1.8c0.6-0.4,1.2-0.8,1.9-1.1L-9397.1,8009.5z M-9405,8009.6
		c-0.8,0.5-1.6,1.1-2.3,1.8l2.2,1.3c0,0,0.1,0,0.1,0.1c0.3,0.2,0.6,0.4,0.9,0.7l0,0c0.7-0.7,1.5-1.4,2.3-1.9L-9405,8009.6z
		 M-9424.5,8002.1v37.5c1.2,0.6,2.3,1.3,3.3,2.1v-37.6L-9424.5,8002.1z M-9412.5,8011.3L-9412.5,8011.3L-9412.5,8011.3
		L-9412.5,8011.3z M-9423.7,8060.1c-2.7-2.6-5.4-6.7-8.4-10.1c-2.8-3.3-5.1-4.9-4.2-7.1l-3.3-1.9c-0.9,2.3,1.3,3.9,4.2,7.1
		c3,3.4,5.7,7.6,8.4,10.1c1.4,1.4,3,2.5,4.7,3.2v4.9l3.3,1.9v-4.9C-9420.7,8062.5-9422.3,8061.4-9423.7,8060.1L-9423.7,8060.1z"/>
	<g id="Groupe_9026" transform="translate(-8552.082 7992.87)">
		<path id="Tracé_11014" class="st17" d="M-866.9,75.3v-4.9c-1.8-0.8-3.4-1.9-4.7-3.2c-2.7-2.6-5.4-6.7-8.4-10.1
			c-3-3.5-5.4-5.1-4-7.6c1.3-2,3.3-3.3,5.6-3.9c2.9-0.5,6.2,0.9,9.3,3.2V11.2c0.2-3,1.8-5.8,4.3-7.5l0,0c2.4-1.4,4.3-0.3,4.3,2.5
			v16.4c0,0,6-5.3,8.4-2c0,0,5.8-6.1,8.5-1c0,0,4.3-3.5,6.2,0.6c1.9,4,1,12.5,0,17.8c-1,5.2-4.2,17.8-4.2,17.8v4.9L-866.9,75.3z"/>
		<path id="Tracé_11015" class="st11" d="M-866.9,75.3v-4.9c-1.8-0.8-3.4-1.9-4.7-3.2c-2.7-2.6-5.4-6.7-8.4-10.1
			c-3-3.5-5.4-5.1-4-7.6c1.3-2,3.3-3.3,5.6-3.9c2.9-0.5,6.2,0.9,9.3,3.2V11.2c0.2-3,1.8-5.8,4.3-7.5l0,0c2.4-1.4,4.3-0.3,4.3,2.5
			v16.4c0,0,6-5.3,8.4-2c0,0,5.8-6.1,8.5-1c0,0,4.3-3.5,6.2,0.6c1.9,4,1,12.5,0,17.8c-1,5.2-4.2,17.8-4.2,17.8v4.9L-866.9,75.3z"/>
	</g>
	<g id="Groupe_9027" transform="translate(-8528.103 8008.31)" class="st21">
		<path id="Tracé_11016" class="st22" d="M-884.4,14.2c0,0,0.5-7.5,3.3-9.3l-0.1,0c-1.1,0.6-2.2,1.4-3.2,2.2V7c0,0,0,0.1,0,0.1
			L-884.4,14.2z"/>
		<path id="Tracé_11017" class="st22" d="M-876,5.1V12c0,0,0.8-7.1,2.3-8.8C-874.5,3.8-875.3,4.4-876,5.1z"/>
		<path id="Tracé_11018" class="st22" d="M-867.5,4.2L-867.5,4.2v6.9c0,0,0.4-6.9,1.9-8C-866.3,3.4-866.9,3.7-867.5,4.2z"/>
	</g>
	<path id="Shadow" class="st13" d="M-9475.3,8209.4c-19.5,9.7-28.4,19.9-18.3,27.1c10.1,7.2,37.6,16.8,37.6,16.8l3.6,12.1l39.9-23
		v-13.7c0,0-24.6-17-34.2-20.2C-9456.3,8205.2-9463.9,8203.7-9475.3,8209.4z"/>
	<g id="Groupe_9030" transform="translate(-8563.527 8264.669)">
		<path id="Tracé_11019" class="st23" d="M-856.7,6.6c0,0-6,14.8-6.3,20.6c-0.3,6.1-1.8,8.1-0.8,14.7c0.2,1.4,1,4.3,1.2,5.5
			c0.2,0.9-0.3,1.9-1.2,2.1c-0.1,0-0.2,0-0.3,0.1c-2.6,0.5-7-4.4-9.1-9.8c-2.1-6.2-3.9-12.6-5.2-19c-0.1-1.5,0.2-2.9,0.8-4.3
			c0.3-0.8,0.7-1.5,1.2-2.2c0.9-2.6,1.3-7.7,2-11.1L-856.7,6.6z"/>
		<g id="Groupe_9029" transform="translate(0 11.141)">
			<path id="Tracé_11020" class="st9" d="M-883.7,15.1c-0.3,0.6-0.6,1.3-0.7,2c-0.1,1.2,2.7,5.2,3.7,6.7c1.5,2,2.2,4.4,2,6.9
				c-0.2,3.9,1.6,7.6,4.1,10.8c3.4,4.2,8.1,7.2,13.2,8.7c6.4,2,8.7-1.2,8.7-1.2s2-3.1,0.8-4.4S-883.7,15.1-883.7,15.1z"/>
			<path id="Tracé_11021" class="st7" d="M-876.5,3.1c-0.2,0-0.5-0.1-1,0.5c-0.2,0.2-1.4,3.1-2.3,4.6c-1,1.6-3.5,4.4-3.8,6.8
				c1.5,4.7,5.9,8,6.6,12.5s0.7,9.7,7.6,15.2c6.9,5.5,14,6,16.5,4.6c2.5-1.5,2.3-4.2-1.2-9.4c-3.8-5.5-6.3-17.4-6.3-17.4
				c-0.3-1.7-0.6-3.4-0.7-5.1c0-1.7,0.2-3.4,0.5-5c0.1-0.8,0-1.6-0.3-2.3c-0.5-0.6-1.1-1.1-1.9-1.3c-1.1-0.5-2.3-0.9-3.5-1.2
				c-1.2-0.3-2.5-0.1-3.6,0.4c-0.8,0.4-1.4,1.1-2.3,1.5c-1.1,0.5-2.5,0.2-3.4-0.6c-0.9-0.7-1.3-2-0.9-3.1
				C-876.6,3.6-876.5,3.4-876.5,3.1z"/>
			<path id="Tracé_11022" class="st15" d="M-873.5,38.4c2.1-3.5,5.9-5.6,10-5.4c7.3,0,9.8,3.7,10.9,5.9c1.3,2.6,2.7,7.3-0.3,8.7
				c-3.3,1.5-7,1-13-2S-873.5,38.4-873.5,38.4z"/>
			<g id="Groupe_9028" transform="translate(11.8 11.108)">
				<path id="Tracé_11023" class="st15" d="M-883.9,5.3c0.2,0.1,0.5,0.1,0.7,0c1.1-0.6,7.1-1.8,10.6,1.4c0.5-0.4,0.4-1-0.2-2
					C-877,2.1-882.6,3.3-884,4c-0.3,0.2-0.5,0.6-0.3,0.9c0,0,0,0,0,0C-884.2,5.1-884.1,5.2-883.9,5.3z"/>
				<path id="Tracé_11024" class="st15" d="M-872,10.9c0.2-0.7,0-1.4-0.4-2c-4-2.2-9.3-1.1-10.6-0.4c-0.3,0.2-0.5,0.6-0.3,0.9
					c0,0,0,0,0,0c0.2,0.4,0.6,0.5,1,0.3C-881.1,9.2-875.5,8-872,10.9z"/>
				<path id="Tracé_11025" class="st15" d="M-869,20.8c0-1-0.3-1.9-0.9-2.6c-4.1-2.4-9.6-1.3-10.9-0.6c-0.3,0.2-0.5,0.6-0.3,0.9
					c0,0,0,0,0,0c0.2,0.4,0.6,0.5,1,0.3C-878.9,18.2-872.3,16.8-869,20.8z"/>
				<path id="Tracé_11026" class="st15" d="M-881.8,14.3c0.2,0.1,0.5,0.1,0.7,0c1.1-0.6,7-1.8,10.5,1.3c0.1-0.8-0.1-1.6-0.6-2.2
					c-4-2.2-9.3-1.1-10.6-0.4c-0.3,0.2-0.5,0.6-0.3,0.9c0,0,0,0,0,0C-882.1,14.1-882,14.2-881.8,14.3z"/>
			</g>
		</g>
	</g>
	<g id="Groupe_9033" transform="translate(-8544.381 8286.255)">
		<path id="Tracé_11027" class="st23" d="M-869.4,3.1c0,0,3,18,6.3,25c3.3,7,5,10.4,9.6,15.7c1,1.2,3.3,3.3,4.1,4.2
			c0.7,0.7,0.8,1.8,0.1,2.5c-0.1,0.1-0.2,0.2-0.3,0.2c-2,1.9-10.7,2.4-15.5-1.2c-4.8-3.6-9.2-11.4-12.1-14.3
			c-1.1-1.1-2.1-2.2-3.1-3.4c-0.9-1.1-0.7-2.2-0.8-3.5c0-0.6,0-2.3,0-2.3c-0.7-3-2.5-7.8-3.4-10.8L-869.4,3.1z"/>
		<g id="Groupe_9032" transform="translate(1.419 19.485)">
			<path id="Tracé_11028" class="st9" d="M-884.1,20.2c-0.1,0.7,0,1.5,0.2,2.2c0.5,1.2,4.9,3.7,6.5,4.6c2.3,1.2,4.1,3.2,5,5.6
				c1.6,3.7,4.9,6.5,8.7,8.4c5.1,2.4,10.8,3.2,16.4,2.3c6.9-1,7.6-5,7.6-5s0.5-3.8-1.2-4.5S-884.1,20.2-884.1,20.2z"/>
			<path id="Tracé_11029" class="st7" d="M-882.6,5.6c-0.2,0.1-0.5,0.2-0.7,1c-0.1,0.3,0.1,3.5-0.1,5.4c-0.3,2-1.4,5.7-0.6,8.2
				c3.5,3.8,9.2,5,11.8,8.9c2.6,3.9,5,8.8,14,10.9s15.9-0.5,17.7-3s0.3-5-5.4-8.3c-6-3.5-13.7-13.7-13.8-13.7
				c-1.1-1.4-2-2.9-2.9-4.5c-0.7-1.6-1.3-3.3-1.8-5c-0.2-0.8-0.7-1.5-1.3-2c-0.7-0.4-1.6-0.5-2.4-0.4c-1.3,0-2.6,0.2-3.9,0.4
				c-1.3,0.3-2.4,1-3.3,2c-0.5,0.8-1,1.6-1.5,2.4c-0.9,0.9-2.2,1.3-3.5,0.9c-1.2-0.3-2.1-1.3-2.3-2.5
				C-882.5,6.2-882.6,5.9-882.6,5.6z"/>
			<path id="Tracé_11030" class="st15" d="M-864.1,37.7c0,0,0.1-6.3,7-9.6c6.9-3.2,11-0.8,13,0.7c2.4,1.9,5.8,5.7,3.6,8.4
				c-2.4,2.8-6.2,4.1-13.1,3.9S-864.1,37.7-864.1,37.7z"/>
			<g id="Groupe_9031" transform="translate(10.975 7.609)">
				<path id="Tracé_11031" class="st15" d="M-883.6,8.6c0.2,0,0.5-0.1,0.6-0.3c0.8-1,5.9-4.9,10.6-3.4c0.3-0.5-0.1-1.1-1.1-1.8
					c-5-0.6-9.8,3-10.8,4.3c-0.2,0.3-0.2,0.8,0.1,1c0,0,0,0,0,0C-883.9,8.6-883.8,8.6-883.6,8.6z"/>
				<path id="Tracé_11032" class="st15" d="M-869.7,8.6c-0.1-0.7-0.6-1.4-1.3-1.7c-4.8-0.3-9.3,3.1-10.2,4.3
					c-0.2,0.3-0.2,0.8,0.1,1c0,0,0,0,0,0c0.1,0.1,0.3,0.1,0.5,0.1c0.2,0,0.5-0.1,0.6-0.3C-879.2,11.1-874.3,7.5-869.7,8.6z"/>
				<path id="Tracé_11033" class="st15" d="M-862.5,16.6c-0.4-0.9-1.2-1.6-2.1-2.1c-4.9-0.5-9.6,3-10.6,4.3c-0.2,0.3-0.2,0.8,0.1,1
					c0,0,0,0,0,0c0.1,0.1,0.3,0.1,0.5,0.1c0.2,0,0.5-0.1,0.6-0.3C-873.1,18.6-867.4,14.4-862.5,16.6z"/>
				<path id="Tracé_11034" class="st15" d="M-877.6,16.2c0.2,0,0.5-0.1,0.6-0.3c0.8-1,5.8-4.8,10.5-3.4c-0.2-0.8-0.8-1.5-1.5-1.8
					c-4.8-0.3-9.3,3.1-10.2,4.3c-0.2,0.3-0.2,0.8,0.1,1c0,0,0,0,0,0C-877.9,16.2-877.7,16.2-877.6,16.2z"/>
			</g>
		</g>
	</g>
	<path id="Tracé_11035" class="st24" d="M-9453.5,8186.7c7.4,5.4,33.1,20.3,43.6,29.9c3,2.8,4,6.5,3.3,14.5
		c-1,10.9-9.6,47.9-9.6,47.9c-1.2,2.1-3.2-1.9-3.2-1.9l-40.8-51.8L-9453.5,8186.7z"/>
	<path id="Tracé_11036" class="st4" d="M-9453.5,8186.7c7.4,5.4,33.1,20.3,43.6,29.9c3,2.8,4,6.5,3.3,14.5
		c-1,10.9-9.6,47.9-9.6,47.9c-1.2,2.1-3.2-1.9-3.2-1.9l-40.8-51.8L-9453.5,8186.7z"/>
	<path id="Tracé_11037" class="st4" d="M-9418,8267.6c-9.4-7.9-39.9-56-39.9-56l0,0c4.1-3.5,6.3-15.7,6.3-15.7
		c1.6,4.7-0.1,11.8-1.4,14.3c2.4,2.1,16,13.2,25.4,20.7c2.4,1.9,4.8,4.2,5.6,8.4C-9420.1,8249.6-9417.8,8265.5-9418,8267.6z"/>
	<path id="Tracé_11038" class="st24" d="M-9453.5,8186.7L-9453.5,8186.7l-52.5,11.6c2.6,9.6,3.3,14.6,6,19.7
		c2.7,5.1,5.7,10.5,19.3,17.2c13.1,6.5,29.2,13.1,32.4,14.7c2.4,1.2,3.6,6,4.7,12.3c1.1,6.6,1.3,11.7,7.8,25.5
		c6.4,13.5,7.7,16.4,7.7,16.4s9.9,1,16.4-4.7c0,0-8.9-46.4-10.8-54.7c-1.1-4.7-1.1-7.1-6.9-12.2c-5-4.4-27.1-21.2-27.1-21.2
		S-9447.8,8199.5-9453.5,8186.7z"/>
	<path id="Tracé_11039" class="st4" d="M-9453.5,8186.7L-9453.5,8186.7l-52.5,11.6c2.6,9.6,3.3,14.6,6,19.7
		c2.7,5.1,5.7,10.5,19.3,17.2c13.1,6.5,29.2,13.1,32.4,14.7c2.4,1.2,3.6,6,4.7,12.3c1.1,6.6,1.3,11.7,7.8,25.5
		c6.4,13.5,7.7,16.4,7.7,16.4s9.9,1,16.4-4.7c0,0-8.9-46.4-10.8-54.7c-1.1-4.7-1.1-7.1-6.9-12.2c-5-4.4-27.1-21.2-27.1-21.2
		S-9447.8,8199.5-9453.5,8186.7z"/>
	<path id="Tracé_11040" class="st23" d="M-9393.2,8099.6c-0.9-0.1-1.8,0.1-2.6,0.5c-0.9,0.5-1.8,1.1-2.7,1.7c-1.3,1-2.6,1.9-4,2.7
		c-1.2,0.9-2.5,1.5-4,1.9c-0.5,0.1-1.5,0.1-1-0.6c0.7-0.9,1.4-1.9,2-2.9c0.6-1.1,0.7-2.3,0.3-3.4c-0.1-0.3-0.4-0.6-0.7-0.8
		c-0.5-0.2-0.7,0-1,0.3c-0.3,0.3-0.6,0.6-0.9,0.9c-0.7,0.6-1.3,1.2-2,1.7c-3.8,3.4-8.4,6.4-10,11.4c-0.9,3.1-1.4,6.2-1.3,9.4
		c0,5.4-0.4,24.4-0.4,24.4s-15-12.6-21.6-18.1c-3.1-2.6-7.5-5.8-12.4-6.3c-3.4-0.3-5.4-0.3-5.4-0.3l10.3,24.9
		c0,0,19.4,14.4,28.7,19.4c8.4,4.5,12.5,1.3,13.5-1.1c1.7-3.9,3.4-5.7,1-27.5c-0.2-1.7-0.4-6.5-0.6-8.2c-0.2-3.5,0.2-7.1,1.5-7.8
		c2.5-1.4,4.9-3,7.1-4.8c1.4-1.2,2.7-2.7,3.8-4.2c0.6-0.7,1-1.5,1.3-2.4c0.1-0.8-0.3-1.7,0-2.5c0.2-0.6,0.5-1,0.7-1.6
		c0.3-1.2,0.2-2.6,0.9-3.6c0.4-0.6,1.1-1.1,1-1.8c-0.2-0.6-0.6-1-1.2-1.1C-9392.9,8099.6-9393,8099.6-9393.2,8099.6z"/>
	<path id="Tracé_11041" class="st25" d="M-9408.5,8109c-0.5,2.9-1.9,5.6-3.9,7.8c1.4-0.8,2.5-2,3.3-3.4
		C-9408,8111.2-9408.2,8110.1-9408.5,8109z"/>
	<path id="Tracé_11042" class="st26" d="M-9461.7,8121.5c5.2,0.2,9.3,0.3,13.8,2.9s24.4,19.3,24.4,19.3s0.2-8.5,0.7-13
		c0.4-3.1,0.9-4.1,1.8-3.9c0,0,1.7,2.7,6.6,3c4.9,0.4,6.5-1.7,6.5-1.7s1.4-0.3,1.9,1.7c0.5,2,1.4,23.7,0.5,30
		c-0.9,6.3-3.7,9.2-7.5,10c-3.8,0.9-12.5-4.4-22.9-11.4c-10.5-7-21.8-13.6-21.8-13.6L-9461.7,8121.5z"/>
	<path id="Tracé_11043" class="st27" d="M-9461.7,8121.5c5.2,0.2,9.3,0.3,13.8,2.9s24.4,19.3,24.4,19.3s0.2-8.5,0.7-13
		c0.4-3.1,0.9-4.1,1.8-3.9c0,0,1.7,2.7,6.6,3c4.9,0.4,6.5-1.7,6.5-1.7s1.4-0.3,1.9,1.7c0.5,2,1.4,23.7,0.5,30
		c-0.9,6.3-3.7,9.2-7.5,10c-3.8,0.9-12.5-4.4-22.9-11.4c-10.5-7-21.8-13.6-21.8-13.6L-9461.7,8121.5z"/>
	<path id="Tracé_11044" class="st20" d="M-9423.6,8143.7c-0.5,4.1-0.3,8.2,0.4,12.2c0,0-3.8-7.4-2.6-14.2L-9423.6,8143.7z"/>
	<path id="Tracé_11045" class="st15" d="M-9504.8,8126.1c-0.9,4.6-9.6,48,0.3,80.5c17.8,2.1,49.1-6.1,53.7-17.9
		c0,0-3.2-11.2-4.5-16.6c0.3-9,0-26.1-0.2-31.4c-0.4-10.5-2-18.6-7.2-19.4c0,0-10.5-0.4-16.8-0.2c-5.5,0.2-9.6,0.3-9.6,0.3
		L-9504.8,8126.1z"/>
	<path id="Tracé_11046" class="st28" d="M-9478.6,8195.2c-1.1-2.6-22.3-15.6-22.3-15.6s0.3-6,1.6-17.2c1.3-11.1,1.6-24.4-2.4-31.1
		l-4,0.2c-2.3,13.5-6.9,48.1,1.3,75.1c9.5,1.1,22.8-0.7,33.9-4.4C-9472.6,8200.8-9477.7,8197.2-9478.6,8195.2z"/>
	<g id="Groupe_9042" transform="translate(-8615.251 8062.53)">
		<path id="Tracé_11047" class="st7" d="M-875.6,48.7c0-2.2-4.3-9-6.2-14.3c-3.3-8.9-3.5-16.9,4.5-20.3c0,0,5-8.7,17.7-9.1
			s22.5,10.3,18.2,24.6L-875.6,48.7z"/>
		<g id="Groupe_9040" transform="translate(0 14.932)">
			<g id="Groupe_9038">
				<path id="Tracé_11048" class="st23" d="M-872.4,20.1c-1.7,0-2.3-2.4-3.4-3.7c-1.9-1.9-5.1-1.8-6.9,0.1
					c-0.2,0.3-0.5,0.5-0.6,0.8c-2.3,3.4-0.1,8.3,2.5,10.2c3.2,2.4,5.4,0.1,5.4,0.1l-0.3,17.9c0,0,0.6,4,7.9,6.3
					c8.5,2.7,15.4-1.8,10.3-7.4l0.2-4.7c2.7,0.6,5.4,0.8,8.2,0.5c2.8-0.4,5.1-2.6,6.5-6.9c2.8-8.5,2-19.8-0.9-30.2
					c-2.8,2.2-15.7,6.4-27.4,2.2C-870.5,12.5-870.8,20.1-872.4,20.1z"/>
				<path id="Tracé_11049" class="st9" d="M-877,25.6c0,0.6-0.5,1.1-1.1,1.1c-0.6,0-1-0.5-1-1.1c0-0.6,0.5-1.1,1.1-1.1l0,0
					C-877.5,24.5-877,25-877,25.6z"/>
				<path id="Tracé_11050" class="st25" d="M-857.4,39.7c0,0-7.1-2.1-9.8-4c-1.8-1.3-3.3-3-4.3-4.9c0.6,2.2,1.6,4.2,3,6
					c3.4,3.8,11.1,5.6,11.1,5.6L-857.4,39.7z"/>
			</g>
			<g id="Groupe_9039" transform="translate(20.506 8.004)">
				<path id="Tracé_11051" class="st9" d="M-878.4,12c0,1-0.8,1.7-1.8,1.7c-1,0-1.7-0.8-1.7-1.8c0-0.9,0.8-1.7,1.7-1.7
					C-879.2,10.1-878.4,10.9-878.4,12C-878.4,11.9-878.4,11.9-878.4,12z"/>
				<path id="Tracé_11052" class="st9" d="M-880.4,6l-3.8,2c-0.5-1.1-0.1-2.4,0.9-3C-882.2,4.4-880.9,4.9-880.4,6
					C-880.4,5.9-880.4,5.9-880.4,6z"/>
				<path id="Tracé_11053" class="st25" d="M-879,21.2l6,1.9c-0.6,1.7-2.4,2.6-4.1,2.1c-1.6-0.5-2.5-2.3-2-3.9
					C-879,21.3-879,21.2-879,21.2z"/>
				<path id="Tracé_11054" class="st9" d="M-864.1,5.9l-4.2-1.1c0.2-1.1,1.4-1.8,2.5-1.6c0,0,0.1,0,0.1,0
					C-864.5,3.5-863.8,4.7-864.1,5.9z"/>
				<path id="Tracé_11055" class="st9" d="M-865.2,10.6c0,1-0.8,1.7-1.8,1.7c-1,0-1.7-0.8-1.7-1.8c0-0.9,0.8-1.7,1.7-1.7
					C-866,8.8-865.2,9.6-865.2,10.6C-865.2,10.6-865.2,10.6-865.2,10.6z"/>
			</g>
		</g>
		<path id="Tracé_11056" class="st8" d="M-842.7,18c3.9-2.8,6.1-6.5,5-11.6c-1.5,1.5-5.8,1.8-9.5,0c-5.9-3.1-12.6-4-19.1-2.8
			c-6.9,1.3-10.9,6.6-10.9,10.4c1.3,2.8,3.2,4.2,6.4,6.2c4.8,3.5,10.7,5.2,16.6,4.8c6.5-0.4,9.8-3.5,9.8-3.5s-3.6,0.3-5.3-0.8
			C-847.2,20.3-844.8,19.4-842.7,18z"/>
		<g id="Groupe_9041" transform="translate(30.672 26.837)">
			<path id="Tracé_11057" class="st25" d="M-882.9,15.1l5.4-2.5l-6.9-9.5L-882.9,15.1z"/>
		</g>
	</g>
	<path id="Tracé_11058" class="st13" d="M-9408.3,8218.6c-0.5-0.7-1-1.4-1.6-1.9c-6.3-5.8-18.1-13.5-28.1-19.9l-45.6,26.3
		c-0.2,0.1-0.3,0.4-0.2,0.6c0,0.1,0.1,0.1,0.2,0.2l33.1,19.1L-9408.3,8218.6z"/>
	<g id="Groupe_9053" transform="translate(-8598.033 8183.742)">
		<g id="Groupe_9044" transform="translate(0 18.378)">
			<path id="Tracé_11059" class="st8" d="M-796.5,3.1v0.7c0,1.1-0.6,2.1-1.5,2.6l-53,30.6c-0.5,0.3-1,0.4-1.5,0.4
				c-0.5,0-1.1-0.1-1.5-0.4l-28.9-16.6c-0.9-0.5-1.5-1.5-1.5-2.6v-1h0v0c0,0.1,0.1,0.3,0.2,0.3l31.7,18.3L-796.5,3.1z"/>
		</g>
		<g id="Groupe_9045" transform="translate(31.909 18.376)">
			<path id="Tracé_11060" class="st9" d="M-884.4,35.4v2c0.5,0,1.1-0.1,1.5-0.4l53-30.6c0.9-0.5,1.5-1.5,1.5-2.6V3.1L-884.4,35.4z"
				/>
		</g>
		<g id="Groupe_9046" transform="translate(0 0)">
			<path id="Tracé_11061" class="st7" d="M-796.5,21.5l-31.4-18.1c-0.6-0.3-1.2-0.3-1.8,0l-54.5,31.5c-0.2,0.1-0.3,0.4-0.2,0.5
				c0,0.1,0.1,0.1,0.2,0.2l31.7,18.3L-796.5,21.5z"/>
		</g>
		<g id="Groupe_9049" transform="translate(14.676 9.671)">
			<g id="Groupe_9047" transform="translate(0 0.001)">
				<path id="Tracé_11062" class="st8" d="M-867.4,41.5l-16.9-9.8l49.5-28.6l17,9.7L-867.4,41.5z"/>
			</g>
			<g id="Groupe_9048" transform="translate(0.003)">
				<path id="Tracé_11063" class="st9" d="M-817.8,12.8l-0.6,0.4l-16.4-9.3l-48.9,28.2l-0.6-0.4l49.5-28.6L-817.8,12.8z"/>
			</g>
		</g>
		<g id="Groupe_9052" transform="translate(23.292 12.162)">
			<g id="Groupe_9050">
				<path id="Tracé_11064" class="st9" d="M-884.4,11.8l0.3,0.2l8.3,4.8l14.8-8.5l0.3-0.2l-8.6-5L-884.4,11.8z"/>
			</g>
			<g id="Groupe_9051" transform="translate(0.313 0.355)">
				<path id="Tracé_11065" class="st8" d="M-884.4,11.6l8.3,4.8l14.8-8.5l-8.3-4.8L-884.4,11.6z"/>
			</g>
		</g>
	</g>
	<path id="Tracé_11066" class="st23" d="M-9443.1,8213.6c-2.4-2.4-5.8-5.6-8.7-6.6c-0.7-0.3-1.3-0.5-2-0.6c1-0.1,2-0.3,3-0.6
		c1-0.3,1.9-0.9,2.5-1.7c0.3-0.3,0.4-0.8,0.1-1.1c-0.1-0.1-0.3-0.1-0.4-0.2c-2.2-0.1-3.9-0.4-5.9-0.5c-0.9-0.1-1.8-0.1-2.7,0
		c-0.8,0.2-1.6,0.5-2.4,0.7c-3.6,1.2-6.9,2.4-12,1.2l-9.2-4.9c0,0-2-0.5-4.8,4.4c-2.9,4.9-1.2,7.6-1.2,7.6l10.3,3.6l0,0l0.1,0.1
		c1.6,0.8,3.2,1.6,4.9,2.1c3.2,1,7.3-0.2,10.1-0.3c2.8-0.1,7.5,1.1,10.1,2.2s5.7-2.9,7-2.5
		C-9442.9,8217.1-9440.7,8216-9443.1,8213.6z"/>
	<path id="Tracé_11067" class="st25" d="M-9455,8204.9c-1.3-0.1-2.7,0.2-3.9,0.6c1.7,0.1,3.5,0.4,5.1,0.9c1-0.1,2-0.3,3-0.6
		c0.9-0.3,1.6-0.8,2.3-1.4C-9450.1,8205.5-9453.1,8205.1-9455,8204.9z"/>
	<path id="Tracé_11068" class="st26" d="M-9504.8,8126.1c2.6,1,6,11.9,3.9,22.4l-4.9,32.7c0,0,6,3.5,14.3,8.7
		c5.8,3.6,10.7,6.9,10.7,9.5c-3.8,1.4-7.2,8.3-6,12c-2.6,3.1-26.5-10.2-34.8-15.9c-3.9-2.6-5.8-3.7-4.3-15.7
		c1.6-13.2,2.8-27.9,5.4-37.7C-9517.8,8131.9-9514.9,8127.9-9504.8,8126.1z"/>
	<path id="Tracé_11069" class="st27" d="M-9504.8,8126.1c2.6,1,6,11.9,3.9,22.4l-4.9,32.7c0,0,6,3.5,14.3,8.7
		c5.8,3.6,10.7,6.9,10.7,9.5c-3.8,1.4-7.2,8.3-6,12c-2.6,3.1-26.5-10.2-34.8-15.9c-3.9-2.6-5.8-3.7-4.3-15.7
		c1.6-13.2,2.8-27.9,5.4-37.7C-9517.8,8131.9-9514.9,8127.9-9504.8,8126.1z"/>
	<g id="Groupe_9055" transform="translate(-8565.271 8164.126)">
		<path id="Tracé_11070" class="st8" d="M-884.4,73.9c1,0.4,2.2,0.3,3.1-0.2l52.7-30.5c0.9-0.5,1.6-1.5,1.7-2.5l5.8-34.4
			c0-0.2,0-0.4,0-0.6c0-1-0.4-1.9-1.1-2.6l-54.8,31.7c-0.7,0.4-1.2,1.1-1.3,1.9L-884.4,73.9z"/>
	</g>
	<g id="Groupe_9056" transform="translate(-8566.125 8163.57)">
		<path id="Tracé_11071" class="st7" d="M-884.4,74l0.4,0.2c0.2,0.1,0.3,0.2,0.5,0.2l6.2-37.3c0.1-0.8,0.6-1.5,1.3-1.9l54.8-31.7
			c-0.2-0.2-0.5-0.4-0.7-0.6l-54.9,31.7c-0.7,0.4-1.2,1.1-1.3,1.9L-884.4,74z"/>
	</g>
	<g id="Groupe_9057" transform="translate(-8566.125 8195.989)">
		<path id="Tracé_11072" class="st9" d="M-876.8,3.6l-0.9-0.5c-0.3,0.3-0.4,0.7-0.5,1.1l-6.3,37.3l0.4,0.2c0.2,0.1,0.3,0.2,0.5,0.2
			l6.2-37.3C-877.2,4.3-877,3.9-876.8,3.6z"/>
	</g>
	<g id="Groupe_9058" transform="translate(-8535.616 8195.494)">
		<path id="Tracé_11073" class="st29" d="M-884.3,10.7c0.4-2.3,2.8-5.4,5.3-6.8c2.6-1.5,4.3-0.8,3.9,1.5s-2.8,5.4-5.3,6.8
			S-884.7,13-884.3,10.7z"/>
	</g>
</g>
</svg>
