<?xml version="1.0" encoding="utf-8"?>
<!-- Generator: Adobe Illustrator 24.3.0, SVG Export Plug-In . SVG Version: 6.00 Build 0)  -->
<svg version="1.1" id="Calque_1" xmlns="http://www.w3.org/2000/svg" xmlns:xlink="http://www.w3.org/1999/xlink" x="0px" y="0px"
	 viewBox="0 0 257.4 97" style="enable-background:new 0 0 257.4 97;" xml:space="preserve">
<style type="text/css">
	.st0{fill:#020303;}
	.st1{fill:#C5D554;}
</style>
<g>
	<path class="st0" d="M34.8,52.6c0.2,7.2,5,12.5,13.8,12.5c8.9,0,11.3-5.6,12.3-8.2h2.6c-2.4,7.3-7.6,10.5-15.2,10.5
		c-9.9,0-16.1-6-16.1-15.5c0-6.1,3.8-15.1,16.1-15.1c10.1,0,15.8,6.7,15.9,15.9C64.3,52.6,34.8,52.6,34.8,52.6z M61.4,50.3
		c-1-7.9-6.6-11.4-13.3-11.4c-7.5,0-12.2,4.5-13.3,11.4H61.4z"/>
	<path class="st0" d="M95.1,60.1L95.1,60.1c-1.5,3.5-5.5,7.2-12.9,7.2c-10.2,0-15.5-7.2-15.5-15.5c0-9.2,6.6-15.3,15.5-15.3
		c7.1,0,11.1,3.9,12.9,7h0.1V26.2h2.6v40.3h-2.6L95.1,60.1z M95.4,52.3c0-10.2-7.3-13.4-13.2-13.4c-6.7,0-12.9,4.2-12.9,13
		c-0.1,8.3,5.3,13.2,12.5,13.2C92.7,65.1,95.4,57.5,95.4,52.3L95.4,52.3z"/>
	<path class="st0" d="M104.2,26.2h2.6v6h-2.6V26.2z M104.2,37.6h2.6v28.9h-2.6V37.6z"/>
	<path class="st0" d="M116.2,27.8h2.6v9.8h8.6v2.3h-8.6v20.8c0,3.6,2,4.2,5.3,4.2c1.2,0,2.4-0.3,3.6-0.3v2.3c-1.5,0.3-3,0.3-4.4,0.3
		c-6.1,0-7-2.3-7-7.8V39.8h-6.6v-2.3h6.6L116.2,27.8L116.2,27.8z"/>
	<path class="st0" d="M159.3,66.5h-2.6v-5.7h-0.1c-1.8,3.5-5.6,6.7-12.2,6.7c-13.3,0-13.3-8.5-13.3-12V37.6h2.6v17.7
		c0,5.9,2.2,9.8,10.8,9.8s12.2-5.3,12.2-10.7V37.6h2.6L159.3,66.5z"/>
	<path class="st0" d="M187.9,46.1c-0.4-4.8-3.5-7.1-10.9-7.1c-7.1,0-9.5,2.8-9.5,5.7c0,3.1,2.3,4.4,5.8,4.9l9.2,1.2
		c5.4,0.8,9.1,2.7,9.1,7.9c0,7.8-8.9,8.6-13.8,8.6c-8,0-13.7-2.7-14.2-9.9h2.6c0.3,3,1,7.7,12.2,7.7c7.6,0,10.6-2.3,10.6-6.4
		c0-3.3-2.4-4.8-5.8-5.3L173,52.2c-3.6-0.4-8.2-2.2-8.2-7.3c0-3.3,2.3-8.2,12.2-8.2c10.8,0,13.1,4.9,13.5,9.4L187.9,46.1z"/>
	<path class="st1" d="M198.7,60h7v6.5h-7V60z"/>
	<path class="st1" d="M215.2,25.9h5.6v40.6h-5.6V25.9z"/>
	<path class="st1" d="M257.4,66.5h-5.6v-4.4h-0.1c-2.7,4.2-7.4,5.5-11.5,5.5c-7.1,0-12.4-3-12.4-10.4V36.9h5.6v19
		c0,4.3,2.7,6.9,8.8,6.9c5.1,0,9.7-3,9.7-8.8V36.9h5.6L257.4,66.5L257.4,66.5z"/>
	<path class="st1" d="M18.1,68.1V15.9c0-4.1,4-6.9,8.9-6.4l70.9,8c-0.2-3.1-2.5-5.6-5.6-6.1L7.3,0.1C3.2,0.1,0,3.3,0,7.3l0,0V79
		c0,4,3.2,7.3,7.2,7.3l0,0L92.5,78c2.8-0.3,5-2.4,5.5-5.2L27,75.3C22.1,75.5,18.1,72.3,18.1,68.1z"/>
	<path class="st0" d="M172.5,85.4h-2.4v2.3h2.3c0.8,0,1.5-0.3,1.5-1.2C173.9,85.8,173.4,85.4,172.5,85.4z"/>
	<path class="st0" d="M173.5,82c0-0.6-0.5-0.9-1.3-0.9h-2v1.9h2C173,83.1,173.5,82.8,173.5,82z"/>
	<path class="st0" d="M222.3,83.6c-0.9-0.1-1.7,0.6-1.8,1.5c0,0,0,0,0,0.1h3.3C223.8,84.3,223.1,83.6,222.3,83.6
		C222.4,83.6,222.4,83.6,222.3,83.6z"/>
	<path class="st0" d="M131.2,72.9V97h126.2V72.9H131.2z M155.1,90.7h-1.9v-5.3c0-1.5-0.1-2.4-1.6-2.4c-1.4,0-1.9,0.9-1.9,2.4v5.3h-2
		v-5.8c0-1.3-0.3-1.9-1.6-1.9c-1.1,0.1-2.1,1-2,2.3c0,0.1,0,0.1,0,0.2v5.4h-2v-9.2h1.9v1.3h0.1c0.6-1,1.6-1.6,2.8-1.5
		c1-0.1,2.1,0.5,2.5,1.5c0.6-1,1.6-1.6,2.9-1.5c1.9,0,3,0.9,3,3L155.1,90.7z M161.7,91.2c-0.7,1.6-1.1,3.1-3.2,3.1
		c-0.4,0-1,0-1.4-0.1v-1.6c0.3,0.1,0.6,0.1,1,0.1c0.9,0,1.2-0.5,1.4-1.3l0.3-0.7l-3.5-9h2.2l2.3,6.8l0,0l2.3-6.8h2.1L161.7,91.2z
		 M173.4,90.7h-7.1V78.1h6.9c3.3,0,4,1.8,4,3.1c0,1-0.6,2-1.6,2.4c1.4,0.4,2.3,1.7,2.2,3.1C177.7,89.4,175.6,90.7,173.4,90.7
		L173.4,90.7z M188.7,90.7h-3.4v-1.1l0,0c-0.7,1-1.8,1.5-3,1.4c-1.6,0.1-3-1.1-3.1-2.7c0-0.1,0-0.3,0-0.3v-6.3h3.5v4.8
		c0,1,0.1,1.8,1.1,1.8c0.6,0,1.4-0.3,1.4-1.7v-4.9h3.5L188.7,90.7z M194.6,91c-2.2,0-4.5-0.9-4.5-3.2h3.3c0,0.3,0.2,0.6,0.4,0.8
		c0.3,0.2,0.6,0.3,1,0.3c0.4,0,1.2-0.2,1.2-0.7s-0.3-0.7-1.9-1c-2.7-0.4-3.7-1.3-3.7-2.9c0-2.3,2.5-2.9,4.3-2.9c2,0,4.3,0.5,4.4,2.9
		H196c0-0.3-0.2-0.5-0.4-0.7c-0.3-0.2-0.5-0.3-0.8-0.3c-0.5,0-1,0.1-1,0.7c0,0.3,0.2,0.3,0.4,0.5c0.5,0.3,1.9,0.3,3,0.7
		c1.1,0.3,2.2,1,2.2,2.5C199.3,90.3,196.8,90.9,194.6,91L194.6,91z M204.1,90.7h-3.5v-9.1h3.5V90.7z M204.1,80.6h-3.5v-2.5h3.5V80.6
		z M215.7,90.7h-3.5v-4.8c0-1-0.1-1.8-1.1-1.8c-0.6,0-1.4,0.3-1.4,1.7v4.8h-3.5v-9h3.4v1.1l0,0c0.7-1,1.8-1.5,3-1.4
		c1.6-0.1,3,1.1,3.1,2.7c0,0.1,0,0.3,0,0.3L215.7,90.7z M222.3,88.7c0.5,0,1.1-0.2,1.5-0.7h3.2c-0.7,2-2.6,2.9-4.7,2.9
		c-3,0-5.1-1.7-5.1-4.8c-0.1-2.6,1.9-4.8,4.5-4.8c0.1,0,0.2,0,0.3,0c3.6,0,5.2,2,5.2,5.6h-6.6C220.5,87.8,221.2,88.6,222.3,88.7
		C222.2,88.7,222.3,88.7,222.3,88.7L222.3,88.7z M232.7,90.9c-2.2,0-4.5-0.9-4.5-3.2h3.3c0,0.3,0.2,0.6,0.4,0.8
		c0.3,0.2,0.6,0.3,1,0.3c0.4,0,1.2-0.2,1.2-0.7s-0.3-0.7-1.9-1c-2.6-0.4-3.7-1.3-3.7-2.9c0-2.3,2.4-2.9,4.3-2.9
		c1.8,0,4.3,0.5,4.4,2.9H234c0-0.3-0.2-0.5-0.4-0.7c-0.3-0.2-0.5-0.3-0.8-0.3c-0.5,0-1,0.1-1,0.7c0,0.3,0.2,0.3,0.4,0.5
		c0.5,0.3,1.9,0.3,3,0.7s2.2,1,2.2,2.5C237.3,90.3,234.9,90.9,232.7,90.9L232.7,90.9z M242.8,90.9c-2.2,0-4.5-0.9-4.5-3.2h3.3
		c0,0.3,0.2,0.6,0.4,0.8c0.3,0.2,0.6,0.3,1,0.3c0.4,0,1.1-0.2,1.1-0.7s-0.3-0.7-1.9-1c-2.7-0.4-3.7-1.3-3.7-2.9
		c0-2.3,2.4-2.9,4.3-2.9c2,0,4.3,0.5,4.4,2.9H244c0-0.3-0.2-0.5-0.4-0.7c-0.3-0.2-0.5-0.3-0.8-0.3c-0.5,0-1,0.1-1,0.7
		c0,0.3,0.2,0.3,0.4,0.5c0.5,0.3,1.9,0.3,3,0.7s2.2,1,2.2,2.5C247.4,90.3,244.9,90.9,242.8,90.9L242.8,90.9z"/>
</g>
</svg>
